<?xml version="1.0" encoding="utf-8" standalone="no"?>
<!DOCTYPE svg PUBLIC "-//W3C//DTD SVG 1.1//EN"
  "http://www.w3.org/Graphics/SVG/1.1/DTD/svg11.dtd">
<svg height="310.86825pt" version="1.1" viewBox="0 0 414.46375 310.86825" width="414.46375pt" xmlns="http://www.w3.org/2000/svg" xmlns:xlink="http://www.w3.org/1999/xlink">
 <metadata>
  <rdf:RDF xmlns:cc="http://creativecommons.org/ns#" xmlns:dc="http://purl.org/dc/elements/1.1/" xmlns:rdf="http://www.w3.org/1999/02/22-rdf-syntax-ns#">
   <cc:Work>
    <dc:type rdf:resource="http://purl.org/dc/dcmitype/StillImage"/>
    <dc:date>2021-07-12T13:48:34.017595</dc:date>
    <dc:format>image/svg+xml</dc:format>
    <dc:creator>
     <cc:Agent>
      <dc:title>Matplotlib v3.4.2, https://matplotlib.org/</dc:title>
     </cc:Agent>
    </dc:creator>
   </cc:Work>
  </rdf:RDF>
 </metadata>
 <defs>
  <style type="text/css">*{stroke-linecap:butt;stroke-linejoin:round;}</style>
 </defs>
 <g id="figure_1">
  <g id="patch_1">
   <path d="M 0 310.86825 
L 414.46375 310.86825 
L 414.46375 0 
L 0 0 
z
" style="fill:#ffffff;"/>
  </g>
  <g id="axes_1">
   <g id="patch_2">
    <path d="M 50.14375 273.312 
L 407.26375 273.312 
L 407.26375 7.2 
L 50.14375 7.2 
z
" style="fill:#ffffff;"/>
   </g>
   <g id="patch_3">
    <path clip-path="url(#p765204a27b)" d="M 67.40728 273.312 
L 69.025396 273.312 
L 69.025396 271.484308 
L 67.40728 271.484308 
z
" style="fill:#1f77b4;"/>
   </g>
   <g id="patch_4">
    <path clip-path="url(#p765204a27b)" d="M 69.025396 273.312 
L 70.643512 273.312 
L 70.643512 271.484308 
L 69.025396 271.484308 
z
" style="fill:#1f77b4;"/>
   </g>
   <g id="patch_5">
    <path clip-path="url(#p765204a27b)" d="M 70.643512 273.312 
L 72.261628 273.312 
L 72.261628 269.656615 
L 70.643512 269.656615 
z
" style="fill:#1f77b4;"/>
   </g>
   <g id="patch_6">
    <path clip-path="url(#p765204a27b)" d="M 72.261628 273.312 
L 73.879745 273.312 
L 73.879745 268.438154 
L 72.261628 268.438154 
z
" style="fill:#1f77b4;"/>
   </g>
   <g id="patch_7">
    <path clip-path="url(#p765204a27b)" d="M 73.879745 273.312 
L 75.497861 273.312 
L 75.497861 268.438154 
L 73.879745 268.438154 
z
" style="fill:#1f77b4;"/>
   </g>
   <g id="patch_8">
    <path clip-path="url(#p765204a27b)" d="M 75.497861 273.312 
L 77.115977 273.312 
L 77.115977 266.610462 
L 75.497861 266.610462 
z
" style="fill:#1f77b4;"/>
   </g>
   <g id="patch_9">
    <path clip-path="url(#p765204a27b)" d="M 77.115977 273.312 
L 78.734093 273.312 
L 78.734093 261.736615 
L 77.115977 261.736615 
z
" style="fill:#1f77b4;"/>
   </g>
   <g id="patch_10">
    <path clip-path="url(#p765204a27b)" d="M 78.734093 273.312 
L 80.352209 273.312 
L 80.352209 265.392 
L 78.734093 265.392 
z
" style="fill:#1f77b4;"/>
   </g>
   <g id="patch_11">
    <path clip-path="url(#p765204a27b)" d="M 80.352209 273.312 
L 81.970325 273.312 
L 81.970325 258.690462 
L 80.352209 258.690462 
z
" style="fill:#1f77b4;"/>
   </g>
   <g id="patch_12">
    <path clip-path="url(#p765204a27b)" d="M 81.970325 273.312 
L 83.588441 273.312 
L 83.588441 261.736615 
L 81.970325 261.736615 
z
" style="fill:#1f77b4;"/>
   </g>
   <g id="patch_13">
    <path clip-path="url(#p765204a27b)" d="M 83.588441 273.312 
L 85.206557 273.312 
L 85.206557 260.518154 
L 83.588441 260.518154 
z
" style="fill:#1f77b4;"/>
   </g>
   <g id="patch_14">
    <path clip-path="url(#p765204a27b)" d="M 85.206557 273.312 
L 86.824673 273.312 
L 86.824673 253.816615 
L 85.206557 253.816615 
z
" style="fill:#1f77b4;"/>
   </g>
   <g id="patch_15">
    <path clip-path="url(#p765204a27b)" d="M 86.824673 273.312 
L 88.442789 273.312 
L 88.442789 253.816615 
L 86.824673 253.816615 
z
" style="fill:#1f77b4;"/>
   </g>
   <g id="patch_16">
    <path clip-path="url(#p765204a27b)" d="M 88.442789 273.312 
L 90.060905 273.312 
L 90.060905 251.988923 
L 88.442789 251.988923 
z
" style="fill:#1f77b4;"/>
   </g>
   <g id="patch_17">
    <path clip-path="url(#p765204a27b)" d="M 90.060905 273.312 
L 91.679021 273.312 
L 91.679021 255.644308 
L 90.060905 255.644308 
z
" style="fill:#1f77b4;"/>
   </g>
   <g id="patch_18">
    <path clip-path="url(#p765204a27b)" d="M 91.679021 273.312 
L 93.297137 273.312 
L 93.297137 250.770462 
L 91.679021 250.770462 
z
" style="fill:#1f77b4;"/>
   </g>
   <g id="patch_19">
    <path clip-path="url(#p765204a27b)" d="M 93.297137 273.312 
L 94.915253 273.312 
L 94.915253 247.724308 
L 93.297137 247.724308 
z
" style="fill:#1f77b4;"/>
   </g>
   <g id="patch_20">
    <path clip-path="url(#p765204a27b)" d="M 94.915253 273.312 
L 96.533369 273.312 
L 96.533369 252.598154 
L 94.915253 252.598154 
z
" style="fill:#1f77b4;"/>
   </g>
   <g id="patch_21">
    <path clip-path="url(#p765204a27b)" d="M 96.533369 273.312 
L 98.151485 273.312 
L 98.151485 248.333538 
L 96.533369 248.333538 
z
" style="fill:#1f77b4;"/>
   </g>
   <g id="patch_22">
    <path clip-path="url(#p765204a27b)" d="M 98.151485 273.312 
L 99.769601 273.312 
L 99.769601 244.068923 
L 98.151485 244.068923 
z
" style="fill:#1f77b4;"/>
   </g>
   <g id="patch_23">
    <path clip-path="url(#p765204a27b)" d="M 99.769601 273.312 
L 101.387717 273.312 
L 101.387717 245.896615 
L 99.769601 245.896615 
z
" style="fill:#1f77b4;"/>
   </g>
   <g id="patch_24">
    <path clip-path="url(#p765204a27b)" d="M 101.387717 273.312 
L 103.005833 273.312 
L 103.005833 242.850462 
L 101.387717 242.850462 
z
" style="fill:#1f77b4;"/>
   </g>
   <g id="patch_25">
    <path clip-path="url(#p765204a27b)" d="M 103.005833 273.312 
L 104.623949 273.312 
L 104.623949 252.598154 
L 103.005833 252.598154 
z
" style="fill:#1f77b4;"/>
   </g>
   <g id="patch_26">
    <path clip-path="url(#p765204a27b)" d="M 104.623949 273.312 
L 106.242065 273.312 
L 106.242065 246.505846 
L 104.623949 246.505846 
z
" style="fill:#1f77b4;"/>
   </g>
   <g id="patch_27">
    <path clip-path="url(#p765204a27b)" d="M 106.242065 273.312 
L 107.860181 273.312 
L 107.860181 240.413538 
L 106.242065 240.413538 
z
" style="fill:#1f77b4;"/>
   </g>
   <g id="patch_28">
    <path clip-path="url(#p765204a27b)" d="M 107.860181 273.312 
L 109.478297 273.312 
L 109.478297 239.195077 
L 107.860181 239.195077 
z
" style="fill:#1f77b4;"/>
   </g>
   <g id="patch_29">
    <path clip-path="url(#p765204a27b)" d="M 109.478297 273.312 
L 111.096413 273.312 
L 111.096413 243.459692 
L 109.478297 243.459692 
z
" style="fill:#1f77b4;"/>
   </g>
   <g id="patch_30">
    <path clip-path="url(#p765204a27b)" d="M 111.096413 273.312 
L 112.714529 273.312 
L 112.714529 236.148923 
L 111.096413 236.148923 
z
" style="fill:#1f77b4;"/>
   </g>
   <g id="patch_31">
    <path clip-path="url(#p765204a27b)" d="M 112.714529 273.312 
L 114.332645 273.312 
L 114.332645 236.148923 
L 112.714529 236.148923 
z
" style="fill:#1f77b4;"/>
   </g>
   <g id="patch_32">
    <path clip-path="url(#p765204a27b)" d="M 114.332645 273.312 
L 115.950761 273.312 
L 115.950761 232.493538 
L 114.332645 232.493538 
z
" style="fill:#1f77b4;"/>
   </g>
   <g id="patch_33">
    <path clip-path="url(#p765204a27b)" d="M 115.950761 273.312 
L 117.568877 273.312 
L 117.568877 233.102769 
L 115.950761 233.102769 
z
" style="fill:#1f77b4;"/>
   </g>
   <g id="patch_34">
    <path clip-path="url(#p765204a27b)" d="M 117.568877 273.312 
L 119.186993 273.312 
L 119.186993 227.010462 
L 117.568877 227.010462 
z
" style="fill:#1f77b4;"/>
   </g>
   <g id="patch_35">
    <path clip-path="url(#p765204a27b)" d="M 119.186993 273.312 
L 120.805109 273.312 
L 120.805109 231.884308 
L 119.186993 231.884308 
z
" style="fill:#1f77b4;"/>
   </g>
   <g id="patch_36">
    <path clip-path="url(#p765204a27b)" d="M 120.805109 273.312 
L 122.423225 273.312 
L 122.423225 236.148923 
L 120.805109 236.148923 
z
" style="fill:#1f77b4;"/>
   </g>
   <g id="patch_37">
    <path clip-path="url(#p765204a27b)" d="M 122.423225 273.312 
L 124.041341 273.312 
L 124.041341 230.665846 
L 122.423225 230.665846 
z
" style="fill:#1f77b4;"/>
   </g>
   <g id="patch_38">
    <path clip-path="url(#p765204a27b)" d="M 124.041341 273.312 
L 125.659457 273.312 
L 125.659457 223.355077 
L 124.041341 223.355077 
z
" style="fill:#1f77b4;"/>
   </g>
   <g id="patch_39">
    <path clip-path="url(#p765204a27b)" d="M 125.659457 273.312 
L 127.277573 273.312 
L 127.277573 220.308923 
L 125.659457 220.308923 
z
" style="fill:#1f77b4;"/>
   </g>
   <g id="patch_40">
    <path clip-path="url(#p765204a27b)" d="M 127.277573 273.312 
L 128.895689 273.312 
L 128.895689 228.838154 
L 127.277573 228.838154 
z
" style="fill:#1f77b4;"/>
   </g>
   <g id="patch_41">
    <path clip-path="url(#p765204a27b)" d="M 128.895689 273.312 
L 130.513805 273.312 
L 130.513805 224.573538 
L 128.895689 224.573538 
z
" style="fill:#1f77b4;"/>
   </g>
   <g id="patch_42">
    <path clip-path="url(#p765204a27b)" d="M 130.513805 273.312 
L 132.131921 273.312 
L 132.131921 228.228923 
L 130.513805 228.228923 
z
" style="fill:#1f77b4;"/>
   </g>
   <g id="patch_43">
    <path clip-path="url(#p765204a27b)" d="M 132.131921 273.312 
L 133.750037 273.312 
L 133.750037 227.619692 
L 132.131921 227.619692 
z
" style="fill:#1f77b4;"/>
   </g>
   <g id="patch_44">
    <path clip-path="url(#p765204a27b)" d="M 133.750037 273.312 
L 135.368153 273.312 
L 135.368153 209.342769 
L 133.750037 209.342769 
z
" style="fill:#1f77b4;"/>
   </g>
   <g id="patch_45">
    <path clip-path="url(#p765204a27b)" d="M 135.368153 273.312 
L 136.986269 273.312 
L 136.986269 221.527385 
L 135.368153 221.527385 
z
" style="fill:#1f77b4;"/>
   </g>
   <g id="patch_46">
    <path clip-path="url(#p765204a27b)" d="M 136.986269 273.312 
L 138.604385 273.312 
L 138.604385 214.825846 
L 136.986269 214.825846 
z
" style="fill:#1f77b4;"/>
   </g>
   <g id="patch_47">
    <path clip-path="url(#p765204a27b)" d="M 138.604385 273.312 
L 140.222501 273.312 
L 140.222501 223.964308 
L 138.604385 223.964308 
z
" style="fill:#1f77b4;"/>
   </g>
   <g id="patch_48">
    <path clip-path="url(#p765204a27b)" d="M 140.222501 273.312 
L 141.840617 273.312 
L 141.840617 220.308923 
L 140.222501 220.308923 
z
" style="fill:#1f77b4;"/>
   </g>
   <g id="patch_49">
    <path clip-path="url(#p765204a27b)" d="M 141.840617 273.312 
L 143.458733 273.312 
L 143.458733 227.010462 
L 141.840617 227.010462 
z
" style="fill:#1f77b4;"/>
   </g>
   <g id="patch_50">
    <path clip-path="url(#p765204a27b)" d="M 143.458733 273.312 
L 145.076849 273.312 
L 145.076849 214.825846 
L 143.458733 214.825846 
z
" style="fill:#1f77b4;"/>
   </g>
   <g id="patch_51">
    <path clip-path="url(#p765204a27b)" d="M 145.076849 273.312 
L 146.694966 273.312 
L 146.694966 223.355077 
L 145.076849 223.355077 
z
" style="fill:#1f77b4;"/>
   </g>
   <g id="patch_52">
    <path clip-path="url(#p765204a27b)" d="M 146.694966 273.312 
L 148.313082 273.312 
L 148.313082 216.044308 
L 146.694966 216.044308 
z
" style="fill:#1f77b4;"/>
   </g>
   <g id="patch_53">
    <path clip-path="url(#p765204a27b)" d="M 148.313082 273.312 
L 149.931198 273.312 
L 149.931198 209.952 
L 148.313082 209.952 
z
" style="fill:#1f77b4;"/>
   </g>
   <g id="patch_54">
    <path clip-path="url(#p765204a27b)" d="M 149.931198 273.312 
L 151.549314 273.312 
L 151.549314 209.342769 
L 149.931198 209.342769 
z
" style="fill:#1f77b4;"/>
   </g>
   <g id="patch_55">
    <path clip-path="url(#p765204a27b)" d="M 151.549314 273.312 
L 153.16743 273.312 
L 153.16743 219.090462 
L 151.549314 219.090462 
z
" style="fill:#1f77b4;"/>
   </g>
   <g id="patch_56">
    <path clip-path="url(#p765204a27b)" d="M 153.16743 273.312 
L 154.785546 273.312 
L 154.785546 207.515077 
L 153.16743 207.515077 
z
" style="fill:#1f77b4;"/>
   </g>
   <g id="patch_57">
    <path clip-path="url(#p765204a27b)" d="M 154.785546 273.312 
L 156.403662 273.312 
L 156.403662 216.653538 
L 154.785546 216.653538 
z
" style="fill:#1f77b4;"/>
   </g>
   <g id="patch_58">
    <path clip-path="url(#p765204a27b)" d="M 156.403662 273.312 
L 158.021778 273.312 
L 158.021778 198.985846 
L 156.403662 198.985846 
z
" style="fill:#1f77b4;"/>
   </g>
   <g id="patch_59">
    <path clip-path="url(#p765204a27b)" d="M 158.021778 273.312 
L 159.639894 273.312 
L 159.639894 209.342769 
L 158.021778 209.342769 
z
" style="fill:#1f77b4;"/>
   </g>
   <g id="patch_60">
    <path clip-path="url(#p765204a27b)" d="M 159.639894 273.312 
L 161.25801 273.312 
L 161.25801 192.893538 
L 159.639894 192.893538 
z
" style="fill:#1f77b4;"/>
   </g>
   <g id="patch_61">
    <path clip-path="url(#p765204a27b)" d="M 161.25801 273.312 
L 162.876126 273.312 
L 162.876126 205.078154 
L 161.25801 205.078154 
z
" style="fill:#1f77b4;"/>
   </g>
   <g id="patch_62">
    <path clip-path="url(#p765204a27b)" d="M 162.876126 273.312 
L 164.494242 273.312 
L 164.494242 208.124308 
L 162.876126 208.124308 
z
" style="fill:#1f77b4;"/>
   </g>
   <g id="patch_63">
    <path clip-path="url(#p765204a27b)" d="M 164.494242 273.312 
L 166.112358 273.312 
L 166.112358 199.595077 
L 164.494242 199.595077 
z
" style="fill:#1f77b4;"/>
   </g>
   <g id="patch_64">
    <path clip-path="url(#p765204a27b)" d="M 166.112358 273.312 
L 167.730474 273.312 
L 167.730474 208.733538 
L 166.112358 208.733538 
z
" style="fill:#1f77b4;"/>
   </g>
   <g id="patch_65">
    <path clip-path="url(#p765204a27b)" d="M 167.730474 273.312 
L 169.34859 273.312 
L 169.34859 209.342769 
L 167.730474 209.342769 
z
" style="fill:#1f77b4;"/>
   </g>
   <g id="patch_66">
    <path clip-path="url(#p765204a27b)" d="M 169.34859 273.312 
L 170.966706 273.312 
L 170.966706 208.124308 
L 169.34859 208.124308 
z
" style="fill:#1f77b4;"/>
   </g>
   <g id="patch_67">
    <path clip-path="url(#p765204a27b)" d="M 170.966706 273.312 
L 172.584822 273.312 
L 172.584822 209.342769 
L 170.966706 209.342769 
z
" style="fill:#1f77b4;"/>
   </g>
   <g id="patch_68">
    <path clip-path="url(#p765204a27b)" d="M 172.584822 273.312 
L 174.202938 273.312 
L 174.202938 195.939692 
L 172.584822 195.939692 
z
" style="fill:#1f77b4;"/>
   </g>
   <g id="patch_69">
    <path clip-path="url(#p765204a27b)" d="M 174.202938 273.312 
L 175.821054 273.312 
L 175.821054 194.721231 
L 174.202938 194.721231 
z
" style="fill:#1f77b4;"/>
   </g>
   <g id="patch_70">
    <path clip-path="url(#p765204a27b)" d="M 175.821054 273.312 
L 177.43917 273.312 
L 177.43917 190.456615 
L 175.821054 190.456615 
z
" style="fill:#1f77b4;"/>
   </g>
   <g id="patch_71">
    <path clip-path="url(#p765204a27b)" d="M 177.43917 273.312 
L 179.057286 273.312 
L 179.057286 191.675077 
L 177.43917 191.675077 
z
" style="fill:#1f77b4;"/>
   </g>
   <g id="patch_72">
    <path clip-path="url(#p765204a27b)" d="M 179.057286 273.312 
L 180.675402 273.312 
L 180.675402 183.145846 
L 179.057286 183.145846 
z
" style="fill:#1f77b4;"/>
   </g>
   <g id="patch_73">
    <path clip-path="url(#p765204a27b)" d="M 180.675402 273.312 
L 182.293518 273.312 
L 182.293518 192.893538 
L 180.675402 192.893538 
z
" style="fill:#1f77b4;"/>
   </g>
   <g id="patch_74">
    <path clip-path="url(#p765204a27b)" d="M 182.293518 273.312 
L 183.911634 273.312 
L 183.911634 201.422769 
L 182.293518 201.422769 
z
" style="fill:#1f77b4;"/>
   </g>
   <g id="patch_75">
    <path clip-path="url(#p765204a27b)" d="M 183.911634 273.312 
L 185.52975 273.312 
L 185.52975 186.801231 
L 183.911634 186.801231 
z
" style="fill:#1f77b4;"/>
   </g>
   <g id="patch_76">
    <path clip-path="url(#p765204a27b)" d="M 185.52975 273.312 
L 187.147866 273.312 
L 187.147866 189.847385 
L 185.52975 189.847385 
z
" style="fill:#1f77b4;"/>
   </g>
   <g id="patch_77">
    <path clip-path="url(#p765204a27b)" d="M 187.147866 273.312 
L 188.765982 273.312 
L 188.765982 184.364308 
L 187.147866 184.364308 
z
" style="fill:#1f77b4;"/>
   </g>
   <g id="patch_78">
    <path clip-path="url(#p765204a27b)" d="M 188.765982 273.312 
L 190.384098 273.312 
L 190.384098 184.364308 
L 188.765982 184.364308 
z
" style="fill:#1f77b4;"/>
   </g>
   <g id="patch_79">
    <path clip-path="url(#p765204a27b)" d="M 190.384098 273.312 
L 192.002214 273.312 
L 192.002214 188.019692 
L 190.384098 188.019692 
z
" style="fill:#1f77b4;"/>
   </g>
   <g id="patch_80">
    <path clip-path="url(#p765204a27b)" d="M 192.002214 273.312 
L 193.62033 273.312 
L 193.62033 164.259692 
L 192.002214 164.259692 
z
" style="fill:#1f77b4;"/>
   </g>
   <g id="patch_81">
    <path clip-path="url(#p765204a27b)" d="M 193.62033 273.312 
L 195.238446 273.312 
L 195.238446 156.339692 
L 193.62033 156.339692 
z
" style="fill:#1f77b4;"/>
   </g>
   <g id="patch_82">
    <path clip-path="url(#p765204a27b)" d="M 195.238446 273.312 
L 196.856562 273.312 
L 196.856562 171.570462 
L 195.238446 171.570462 
z
" style="fill:#1f77b4;"/>
   </g>
   <g id="patch_83">
    <path clip-path="url(#p765204a27b)" d="M 196.856562 273.312 
L 198.474678 273.312 
L 198.474678 181.318154 
L 196.856562 181.318154 
z
" style="fill:#1f77b4;"/>
   </g>
   <g id="patch_84">
    <path clip-path="url(#p765204a27b)" d="M 198.474678 273.312 
L 200.092794 273.312 
L 200.092794 178.272 
L 198.474678 178.272 
z
" style="fill:#1f77b4;"/>
   </g>
   <g id="patch_85">
    <path clip-path="url(#p765204a27b)" d="M 200.092794 273.312 
L 201.71091 273.312 
L 201.71091 174.007385 
L 200.092794 174.007385 
z
" style="fill:#1f77b4;"/>
   </g>
   <g id="patch_86">
    <path clip-path="url(#p765204a27b)" d="M 201.71091 273.312 
L 203.329026 273.312 
L 203.329026 157.558154 
L 201.71091 157.558154 
z
" style="fill:#1f77b4;"/>
   </g>
   <g id="patch_87">
    <path clip-path="url(#p765204a27b)" d="M 203.329026 273.312 
L 204.947142 273.312 
L 204.947142 172.788923 
L 203.329026 172.788923 
z
" style="fill:#1f77b4;"/>
   </g>
   <g id="patch_88">
    <path clip-path="url(#p765204a27b)" d="M 204.947142 273.312 
L 206.565258 273.312 
L 206.565258 178.881231 
L 204.947142 178.881231 
z
" style="fill:#1f77b4;"/>
   </g>
   <g id="patch_89">
    <path clip-path="url(#p765204a27b)" d="M 206.565258 273.312 
L 208.183374 273.312 
L 208.183374 173.398154 
L 206.565258 173.398154 
z
" style="fill:#1f77b4;"/>
   </g>
   <g id="patch_90">
    <path clip-path="url(#p765204a27b)" d="M 208.183374 273.312 
L 209.80149 273.312 
L 209.80149 157.558154 
L 208.183374 157.558154 
z
" style="fill:#1f77b4;"/>
   </g>
   <g id="patch_91">
    <path clip-path="url(#p765204a27b)" d="M 209.80149 273.312 
L 211.419606 273.312 
L 211.419606 161.213538 
L 209.80149 161.213538 
z
" style="fill:#1f77b4;"/>
   </g>
   <g id="patch_92">
    <path clip-path="url(#p765204a27b)" d="M 211.419606 273.312 
L 213.037722 273.312 
L 213.037722 168.524308 
L 211.419606 168.524308 
z
" style="fill:#1f77b4;"/>
   </g>
   <g id="patch_93">
    <path clip-path="url(#p765204a27b)" d="M 213.037722 273.312 
L 214.655838 273.312 
L 214.655838 165.478154 
L 213.037722 165.478154 
z
" style="fill:#1f77b4;"/>
   </g>
   <g id="patch_94">
    <path clip-path="url(#p765204a27b)" d="M 214.655838 273.312 
L 216.273954 273.312 
L 216.273954 155.121231 
L 214.655838 155.121231 
z
" style="fill:#1f77b4;"/>
   </g>
   <g id="patch_95">
    <path clip-path="url(#p765204a27b)" d="M 216.273954 273.312 
L 217.892071 273.312 
L 217.892071 157.558154 
L 216.273954 157.558154 
z
" style="fill:#1f77b4;"/>
   </g>
   <g id="patch_96">
    <path clip-path="url(#p765204a27b)" d="M 217.892071 273.312 
L 219.510187 273.312 
L 219.510187 166.087385 
L 217.892071 166.087385 
z
" style="fill:#1f77b4;"/>
   </g>
   <g id="patch_97">
    <path clip-path="url(#p765204a27b)" d="M 219.510187 273.312 
L 221.128303 273.312 
L 221.128303 154.512 
L 219.510187 154.512 
z
" style="fill:#1f77b4;"/>
   </g>
   <g id="patch_98">
    <path clip-path="url(#p765204a27b)" d="M 221.128303 273.312 
L 222.746419 273.312 
L 222.746419 139.890462 
L 221.128303 139.890462 
z
" style="fill:#1f77b4;"/>
   </g>
   <g id="patch_99">
    <path clip-path="url(#p765204a27b)" d="M 222.746419 273.312 
L 224.364535 273.312 
L 224.364535 167.305846 
L 222.746419 167.305846 
z
" style="fill:#1f77b4;"/>
   </g>
   <g id="patch_100">
    <path clip-path="url(#p765204a27b)" d="M 224.364535 273.312 
L 225.982651 273.312 
L 225.982651 156.339692 
L 224.364535 156.339692 
z
" style="fill:#1f77b4;"/>
   </g>
   <g id="patch_101">
    <path clip-path="url(#p765204a27b)" d="M 225.982651 273.312 
L 227.600767 273.312 
L 227.600767 154.512 
L 225.982651 154.512 
z
" style="fill:#1f77b4;"/>
   </g>
   <g id="patch_102">
    <path clip-path="url(#p765204a27b)" d="M 227.600767 273.312 
L 229.218883 273.312 
L 229.218883 162.432 
L 227.600767 162.432 
z
" style="fill:#1f77b4;"/>
   </g>
   <g id="patch_103">
    <path clip-path="url(#p765204a27b)" d="M 229.218883 273.312 
L 230.836999 273.312 
L 230.836999 147.201231 
L 229.218883 147.201231 
z
" style="fill:#1f77b4;"/>
   </g>
   <g id="patch_104">
    <path clip-path="url(#p765204a27b)" d="M 230.836999 273.312 
L 232.455115 273.312 
L 232.455115 125.878154 
L 230.836999 125.878154 
z
" style="fill:#1f77b4;"/>
   </g>
   <g id="patch_105">
    <path clip-path="url(#p765204a27b)" d="M 232.455115 273.312 
L 234.073231 273.312 
L 234.073231 149.638154 
L 232.455115 149.638154 
z
" style="fill:#1f77b4;"/>
   </g>
   <g id="patch_106">
    <path clip-path="url(#p765204a27b)" d="M 234.073231 273.312 
L 235.691347 273.312 
L 235.691347 159.385846 
L 234.073231 159.385846 
z
" style="fill:#1f77b4;"/>
   </g>
   <g id="patch_107">
    <path clip-path="url(#p765204a27b)" d="M 235.691347 273.312 
L 237.309463 273.312 
L 237.309463 147.810462 
L 235.691347 147.810462 
z
" style="fill:#1f77b4;"/>
   </g>
   <g id="patch_108">
    <path clip-path="url(#p765204a27b)" d="M 237.309463 273.312 
L 238.927579 273.312 
L 238.927579 142.327385 
L 237.309463 142.327385 
z
" style="fill:#1f77b4;"/>
   </g>
   <g id="patch_109">
    <path clip-path="url(#p765204a27b)" d="M 238.927579 273.312 
L 240.545695 273.312 
L 240.545695 138.672 
L 238.927579 138.672 
z
" style="fill:#1f77b4;"/>
   </g>
   <g id="patch_110">
    <path clip-path="url(#p765204a27b)" d="M 240.545695 273.312 
L 242.163811 273.312 
L 242.163811 150.856615 
L 240.545695 150.856615 
z
" style="fill:#1f77b4;"/>
   </g>
   <g id="patch_111">
    <path clip-path="url(#p765204a27b)" d="M 242.163811 273.312 
L 243.781927 273.312 
L 243.781927 124.659692 
L 242.163811 124.659692 
z
" style="fill:#1f77b4;"/>
   </g>
   <g id="patch_112">
    <path clip-path="url(#p765204a27b)" d="M 243.781927 273.312 
L 245.400043 273.312 
L 245.400043 145.373538 
L 243.781927 145.373538 
z
" style="fill:#1f77b4;"/>
   </g>
   <g id="patch_113">
    <path clip-path="url(#p765204a27b)" d="M 245.400043 273.312 
L 247.018159 273.312 
L 247.018159 131.361231 
L 245.400043 131.361231 
z
" style="fill:#1f77b4;"/>
   </g>
   <g id="patch_114">
    <path clip-path="url(#p765204a27b)" d="M 247.018159 273.312 
L 248.636275 273.312 
L 248.636275 132.579692 
L 247.018159 132.579692 
z
" style="fill:#1f77b4;"/>
   </g>
   <g id="patch_115">
    <path clip-path="url(#p765204a27b)" d="M 248.636275 273.312 
L 250.254391 273.312 
L 250.254391 141.108923 
L 248.636275 141.108923 
z
" style="fill:#1f77b4;"/>
   </g>
   <g id="patch_116">
    <path clip-path="url(#p765204a27b)" d="M 250.254391 273.312 
L 251.872507 273.312 
L 251.872507 137.453538 
L 250.254391 137.453538 
z
" style="fill:#1f77b4;"/>
   </g>
   <g id="patch_117">
    <path clip-path="url(#p765204a27b)" d="M 251.872507 273.312 
L 253.490623 273.312 
L 253.490623 125.878154 
L 251.872507 125.878154 
z
" style="fill:#1f77b4;"/>
   </g>
   <g id="patch_118">
    <path clip-path="url(#p765204a27b)" d="M 253.490623 273.312 
L 255.108739 273.312 
L 255.108739 122.222769 
L 253.490623 122.222769 
z
" style="fill:#1f77b4;"/>
   </g>
   <g id="patch_119">
    <path clip-path="url(#p765204a27b)" d="M 255.108739 273.312 
L 256.726855 273.312 
L 256.726855 145.982769 
L 255.108739 145.982769 
z
" style="fill:#1f77b4;"/>
   </g>
   <g id="patch_120">
    <path clip-path="url(#p765204a27b)" d="M 256.726855 273.312 
L 258.344971 273.312 
L 258.344971 141.718154 
L 256.726855 141.718154 
z
" style="fill:#1f77b4;"/>
   </g>
   <g id="patch_121">
    <path clip-path="url(#p765204a27b)" d="M 258.344971 273.312 
L 259.963087 273.312 
L 259.963087 135.625846 
L 258.344971 135.625846 
z
" style="fill:#1f77b4;"/>
   </g>
   <g id="patch_122">
    <path clip-path="url(#p765204a27b)" d="M 259.963087 273.312 
L 261.581203 273.312 
L 261.581203 123.441231 
L 259.963087 123.441231 
z
" style="fill:#1f77b4;"/>
   </g>
   <g id="patch_123">
    <path clip-path="url(#p765204a27b)" d="M 261.581203 273.312 
L 263.199319 273.312 
L 263.199319 123.441231 
L 261.581203 123.441231 
z
" style="fill:#1f77b4;"/>
   </g>
   <g id="patch_124">
    <path clip-path="url(#p765204a27b)" d="M 263.199319 273.312 
L 264.817435 273.312 
L 264.817435 112.475077 
L 263.199319 112.475077 
z
" style="fill:#1f77b4;"/>
   </g>
   <g id="patch_125">
    <path clip-path="url(#p765204a27b)" d="M 264.817435 273.312 
L 266.435551 273.312 
L 266.435551 119.785846 
L 264.817435 119.785846 
z
" style="fill:#1f77b4;"/>
   </g>
   <g id="patch_126">
    <path clip-path="url(#p765204a27b)" d="M 266.435551 273.312 
L 268.053667 273.312 
L 268.053667 111.865846 
L 266.435551 111.865846 
z
" style="fill:#1f77b4;"/>
   </g>
   <g id="patch_127">
    <path clip-path="url(#p765204a27b)" d="M 268.053667 273.312 
L 269.671783 273.312 
L 269.671783 104.555077 
L 268.053667 104.555077 
z
" style="fill:#1f77b4;"/>
   </g>
   <g id="patch_128">
    <path clip-path="url(#p765204a27b)" d="M 269.671783 273.312 
L 271.289899 273.312 
L 271.289899 114.302769 
L 269.671783 114.302769 
z
" style="fill:#1f77b4;"/>
   </g>
   <g id="patch_129">
    <path clip-path="url(#p765204a27b)" d="M 271.289899 273.312 
L 272.908015 273.312 
L 272.908015 132.579692 
L 271.289899 132.579692 
z
" style="fill:#1f77b4;"/>
   </g>
   <g id="patch_130">
    <path clip-path="url(#p765204a27b)" d="M 272.908015 273.312 
L 274.526131 273.312 
L 274.526131 121.004308 
L 272.908015 121.004308 
z
" style="fill:#1f77b4;"/>
   </g>
   <g id="patch_131">
    <path clip-path="url(#p765204a27b)" d="M 274.526131 273.312 
L 276.144247 273.312 
L 276.144247 116.130462 
L 274.526131 116.130462 
z
" style="fill:#1f77b4;"/>
   </g>
   <g id="patch_132">
    <path clip-path="url(#p765204a27b)" d="M 276.144247 273.312 
L 277.762363 273.312 
L 277.762363 121.613538 
L 276.144247 121.613538 
z
" style="fill:#1f77b4;"/>
   </g>
   <g id="patch_133">
    <path clip-path="url(#p765204a27b)" d="M 277.762363 273.312 
L 279.380479 273.312 
L 279.380479 98.462769 
L 277.762363 98.462769 
z
" style="fill:#1f77b4;"/>
   </g>
   <g id="patch_134">
    <path clip-path="url(#p765204a27b)" d="M 279.380479 273.312 
L 280.998595 273.312 
L 280.998595 110.647385 
L 279.380479 110.647385 
z
" style="fill:#1f77b4;"/>
   </g>
   <g id="patch_135">
    <path clip-path="url(#p765204a27b)" d="M 280.998595 273.312 
L 282.616711 273.312 
L 282.616711 111.256615 
L 280.998595 111.256615 
z
" style="fill:#1f77b4;"/>
   </g>
   <g id="patch_136">
    <path clip-path="url(#p765204a27b)" d="M 282.616711 273.312 
L 284.234827 273.312 
L 284.234827 103.945846 
L 282.616711 103.945846 
z
" style="fill:#1f77b4;"/>
   </g>
   <g id="patch_137">
    <path clip-path="url(#p765204a27b)" d="M 284.234827 273.312 
L 285.852943 273.312 
L 285.852943 125.878154 
L 284.234827 125.878154 
z
" style="fill:#1f77b4;"/>
   </g>
   <g id="patch_138">
    <path clip-path="url(#p765204a27b)" d="M 285.852943 273.312 
L 287.471059 273.312 
L 287.471059 115.521231 
L 285.852943 115.521231 
z
" style="fill:#1f77b4;"/>
   </g>
   <g id="patch_139">
    <path clip-path="url(#p765204a27b)" d="M 287.471059 273.312 
L 289.089176 273.312 
L 289.089176 111.865846 
L 287.471059 111.865846 
z
" style="fill:#1f77b4;"/>
   </g>
   <g id="patch_140">
    <path clip-path="url(#p765204a27b)" d="M 289.089176 273.312 
L 290.707292 273.312 
L 290.707292 107.601231 
L 289.089176 107.601231 
z
" style="fill:#1f77b4;"/>
   </g>
   <g id="patch_141">
    <path clip-path="url(#p765204a27b)" d="M 290.707292 273.312 
L 292.325408 273.312 
L 292.325408 97.244308 
L 290.707292 97.244308 
z
" style="fill:#1f77b4;"/>
   </g>
   <g id="patch_142">
    <path clip-path="url(#p765204a27b)" d="M 292.325408 273.312 
L 293.943524 273.312 
L 293.943524 105.773538 
L 292.325408 105.773538 
z
" style="fill:#1f77b4;"/>
   </g>
   <g id="patch_143">
    <path clip-path="url(#p765204a27b)" d="M 293.943524 273.312 
L 295.56164 273.312 
L 295.56164 108.210462 
L 293.943524 108.210462 
z
" style="fill:#1f77b4;"/>
   </g>
   <g id="patch_144">
    <path clip-path="url(#p765204a27b)" d="M 295.56164 273.312 
L 297.179756 273.312 
L 297.179756 88.105846 
L 295.56164 88.105846 
z
" style="fill:#1f77b4;"/>
   </g>
   <g id="patch_145">
    <path clip-path="url(#p765204a27b)" d="M 297.179756 273.312 
L 298.797872 273.312 
L 298.797872 108.210462 
L 297.179756 108.210462 
z
" style="fill:#1f77b4;"/>
   </g>
   <g id="patch_146">
    <path clip-path="url(#p765204a27b)" d="M 298.797872 273.312 
L 300.415988 273.312 
L 300.415988 82.622769 
L 298.797872 82.622769 
z
" style="fill:#1f77b4;"/>
   </g>
   <g id="patch_147">
    <path clip-path="url(#p765204a27b)" d="M 300.415988 273.312 
L 302.034104 273.312 
L 302.034104 113.084308 
L 300.415988 113.084308 
z
" style="fill:#1f77b4;"/>
   </g>
   <g id="patch_148">
    <path clip-path="url(#p765204a27b)" d="M 302.034104 273.312 
L 303.65222 273.312 
L 303.65222 84.450462 
L 302.034104 84.450462 
z
" style="fill:#1f77b4;"/>
   </g>
   <g id="patch_149">
    <path clip-path="url(#p765204a27b)" d="M 303.65222 273.312 
L 305.270336 273.312 
L 305.270336 108.210462 
L 303.65222 108.210462 
z
" style="fill:#1f77b4;"/>
   </g>
   <g id="patch_150">
    <path clip-path="url(#p765204a27b)" d="M 305.270336 273.312 
L 306.888452 273.312 
L 306.888452 76.530462 
L 305.270336 76.530462 
z
" style="fill:#1f77b4;"/>
   </g>
   <g id="patch_151">
    <path clip-path="url(#p765204a27b)" d="M 306.888452 273.312 
L 308.506568 273.312 
L 308.506568 80.795077 
L 306.888452 80.795077 
z
" style="fill:#1f77b4;"/>
   </g>
   <g id="patch_152">
    <path clip-path="url(#p765204a27b)" d="M 308.506568 273.312 
L 310.124684 273.312 
L 310.124684 102.727385 
L 308.506568 102.727385 
z
" style="fill:#1f77b4;"/>
   </g>
   <g id="patch_153">
    <path clip-path="url(#p765204a27b)" d="M 310.124684 273.312 
L 311.7428 273.312 
L 311.7428 109.428923 
L 310.124684 109.428923 
z
" style="fill:#1f77b4;"/>
   </g>
   <g id="patch_154">
    <path clip-path="url(#p765204a27b)" d="M 311.7428 273.312 
L 313.360916 273.312 
L 313.360916 83.232 
L 311.7428 83.232 
z
" style="fill:#1f77b4;"/>
   </g>
   <g id="patch_155">
    <path clip-path="url(#p765204a27b)" d="M 313.360916 273.312 
L 314.979032 273.312 
L 314.979032 88.715077 
L 313.360916 88.715077 
z
" style="fill:#1f77b4;"/>
   </g>
   <g id="patch_156">
    <path clip-path="url(#p765204a27b)" d="M 314.979032 273.312 
L 316.597148 273.312 
L 316.597148 87.496615 
L 314.979032 87.496615 
z
" style="fill:#1f77b4;"/>
   </g>
   <g id="patch_157">
    <path clip-path="url(#p765204a27b)" d="M 316.597148 273.312 
L 318.215264 273.312 
L 318.215264 102.727385 
L 316.597148 102.727385 
z
" style="fill:#1f77b4;"/>
   </g>
   <g id="patch_158">
    <path clip-path="url(#p765204a27b)" d="M 318.215264 273.312 
L 319.83338 273.312 
L 319.83338 93.588923 
L 318.215264 93.588923 
z
" style="fill:#1f77b4;"/>
   </g>
   <g id="patch_159">
    <path clip-path="url(#p765204a27b)" d="M 319.83338 273.312 
L 321.451496 273.312 
L 321.451496 89.324308 
L 319.83338 89.324308 
z
" style="fill:#1f77b4;"/>
   </g>
   <g id="patch_160">
    <path clip-path="url(#p765204a27b)" d="M 321.451496 273.312 
L 323.069612 273.312 
L 323.069612 81.404308 
L 321.451496 81.404308 
z
" style="fill:#1f77b4;"/>
   </g>
   <g id="patch_161">
    <path clip-path="url(#p765204a27b)" d="M 323.069612 273.312 
L 324.687728 273.312 
L 324.687728 95.416615 
L 323.069612 95.416615 
z
" style="fill:#1f77b4;"/>
   </g>
   <g id="patch_162">
    <path clip-path="url(#p765204a27b)" d="M 324.687728 273.312 
L 326.305844 273.312 
L 326.305844 74.093538 
L 324.687728 74.093538 
z
" style="fill:#1f77b4;"/>
   </g>
   <g id="patch_163">
    <path clip-path="url(#p765204a27b)" d="M 326.305844 273.312 
L 327.92396 273.312 
L 327.92396 74.093538 
L 326.305844 74.093538 
z
" style="fill:#1f77b4;"/>
   </g>
   <g id="patch_164">
    <path clip-path="url(#p765204a27b)" d="M 327.92396 273.312 
L 329.542076 273.312 
L 329.542076 64.955077 
L 327.92396 64.955077 
z
" style="fill:#1f77b4;"/>
   </g>
   <g id="patch_165">
    <path clip-path="url(#p765204a27b)" d="M 329.542076 273.312 
L 331.160192 273.312 
L 331.160192 85.668923 
L 329.542076 85.668923 
z
" style="fill:#1f77b4;"/>
   </g>
   <g id="patch_166">
    <path clip-path="url(#p765204a27b)" d="M 331.160192 273.312 
L 332.778308 273.312 
L 332.778308 89.324308 
L 331.160192 89.324308 
z
" style="fill:#1f77b4;"/>
   </g>
   <g id="patch_167">
    <path clip-path="url(#p765204a27b)" d="M 332.778308 273.312 
L 334.396424 273.312 
L 334.396424 54.598154 
L 332.778308 54.598154 
z
" style="fill:#1f77b4;"/>
   </g>
   <g id="patch_168">
    <path clip-path="url(#p765204a27b)" d="M 334.396424 273.312 
L 336.01454 273.312 
L 336.01454 54.598154 
L 334.396424 54.598154 
z
" style="fill:#1f77b4;"/>
   </g>
   <g id="patch_169">
    <path clip-path="url(#p765204a27b)" d="M 336.01454 273.312 
L 337.632656 273.312 
L 337.632656 92.370462 
L 336.01454 92.370462 
z
" style="fill:#1f77b4;"/>
   </g>
   <g id="patch_170">
    <path clip-path="url(#p765204a27b)" d="M 337.632656 273.312 
L 339.250772 273.312 
L 339.250772 64.955077 
L 337.632656 64.955077 
z
" style="fill:#1f77b4;"/>
   </g>
   <g id="patch_171">
    <path clip-path="url(#p765204a27b)" d="M 339.250772 273.312 
L 340.868888 273.312 
L 340.868888 58.862769 
L 339.250772 58.862769 
z
" style="fill:#1f77b4;"/>
   </g>
   <g id="patch_172">
    <path clip-path="url(#p765204a27b)" d="M 340.868888 273.312 
L 342.487004 273.312 
L 342.487004 57.644308 
L 340.868888 57.644308 
z
" style="fill:#1f77b4;"/>
   </g>
   <g id="patch_173">
    <path clip-path="url(#p765204a27b)" d="M 342.487004 273.312 
L 344.10512 273.312 
L 344.10512 67.392 
L 342.487004 67.392 
z
" style="fill:#1f77b4;"/>
   </g>
   <g id="patch_174">
    <path clip-path="url(#p765204a27b)" d="M 344.10512 273.312 
L 345.723236 273.312 
L 345.723236 58.253538 
L 344.10512 58.253538 
z
" style="fill:#1f77b4;"/>
   </g>
   <g id="patch_175">
    <path clip-path="url(#p765204a27b)" d="M 345.723236 273.312 
L 347.341352 273.312 
L 347.341352 65.564308 
L 345.723236 65.564308 
z
" style="fill:#1f77b4;"/>
   </g>
   <g id="patch_176">
    <path clip-path="url(#p765204a27b)" d="M 347.341352 273.312 
L 348.959468 273.312 
L 348.959468 58.862769 
L 347.341352 58.862769 
z
" style="fill:#1f77b4;"/>
   </g>
   <g id="patch_177">
    <path clip-path="url(#p765204a27b)" d="M 348.959468 273.312 
L 350.577584 273.312 
L 350.577584 83.841231 
L 348.959468 83.841231 
z
" style="fill:#1f77b4;"/>
   </g>
   <g id="patch_178">
    <path clip-path="url(#p765204a27b)" d="M 350.577584 273.312 
L 352.1957 273.312 
L 352.1957 52.770462 
L 350.577584 52.770462 
z
" style="fill:#1f77b4;"/>
   </g>
   <g id="patch_179">
    <path clip-path="url(#p765204a27b)" d="M 352.1957 273.312 
L 353.813816 273.312 
L 353.813816 66.173538 
L 352.1957 66.173538 
z
" style="fill:#1f77b4;"/>
   </g>
   <g id="patch_180">
    <path clip-path="url(#p765204a27b)" d="M 353.813816 273.312 
L 355.431932 273.312 
L 355.431932 60.081231 
L 353.813816 60.081231 
z
" style="fill:#1f77b4;"/>
   </g>
   <g id="patch_181">
    <path clip-path="url(#p765204a27b)" d="M 355.431932 273.312 
L 357.050048 273.312 
L 357.050048 41.804308 
L 355.431932 41.804308 
z
" style="fill:#1f77b4;"/>
   </g>
   <g id="patch_182">
    <path clip-path="url(#p765204a27b)" d="M 357.050048 273.312 
L 358.668164 273.312 
L 358.668164 52.161231 
L 357.050048 52.161231 
z
" style="fill:#1f77b4;"/>
   </g>
   <g id="patch_183">
    <path clip-path="url(#p765204a27b)" d="M 358.668164 273.312 
L 360.28628 273.312 
L 360.28628 56.425846 
L 358.668164 56.425846 
z
" style="fill:#1f77b4;"/>
   </g>
   <g id="patch_184">
    <path clip-path="url(#p765204a27b)" d="M 360.28628 273.312 
L 361.904397 273.312 
L 361.904397 56.425846 
L 360.28628 56.425846 
z
" style="fill:#1f77b4;"/>
   </g>
   <g id="patch_185">
    <path clip-path="url(#p765204a27b)" d="M 361.904397 273.312 
L 363.522513 273.312 
L 363.522513 56.425846 
L 361.904397 56.425846 
z
" style="fill:#1f77b4;"/>
   </g>
   <g id="patch_186">
    <path clip-path="url(#p765204a27b)" d="M 363.522513 273.312 
L 365.140629 273.312 
L 365.140629 64.955077 
L 363.522513 64.955077 
z
" style="fill:#1f77b4;"/>
   </g>
   <g id="patch_187">
    <path clip-path="url(#p765204a27b)" d="M 365.140629 273.312 
L 366.758745 273.312 
L 366.758745 45.459692 
L 365.140629 45.459692 
z
" style="fill:#1f77b4;"/>
   </g>
   <g id="patch_188">
    <path clip-path="url(#p765204a27b)" d="M 366.758745 273.312 
L 368.376861 273.312 
L 368.376861 19.872 
L 366.758745 19.872 
z
" style="fill:#1f77b4;"/>
   </g>
   <g id="patch_189">
    <path clip-path="url(#p765204a27b)" d="M 368.376861 273.312 
L 369.994977 273.312 
L 369.994977 62.518154 
L 368.376861 62.518154 
z
" style="fill:#1f77b4;"/>
   </g>
   <g id="patch_190">
    <path clip-path="url(#p765204a27b)" d="M 369.994977 273.312 
L 371.613093 273.312 
L 371.613093 36.930462 
L 369.994977 36.930462 
z
" style="fill:#1f77b4;"/>
   </g>
   <g id="patch_191">
    <path clip-path="url(#p765204a27b)" d="M 371.613093 273.312 
L 373.231209 273.312 
L 373.231209 33.275077 
L 371.613093 33.275077 
z
" style="fill:#1f77b4;"/>
   </g>
   <g id="patch_192">
    <path clip-path="url(#p765204a27b)" d="M 373.231209 273.312 
L 374.849325 273.312 
L 374.849325 34.493538 
L 373.231209 34.493538 
z
" style="fill:#1f77b4;"/>
   </g>
   <g id="patch_193">
    <path clip-path="url(#p765204a27b)" d="M 374.849325 273.312 
L 376.467441 273.312 
L 376.467441 36.321231 
L 374.849325 36.321231 
z
" style="fill:#1f77b4;"/>
   </g>
   <g id="patch_194">
    <path clip-path="url(#p765204a27b)" d="M 376.467441 273.312 
L 378.085557 273.312 
L 378.085557 46.678154 
L 376.467441 46.678154 
z
" style="fill:#1f77b4;"/>
   </g>
   <g id="patch_195">
    <path clip-path="url(#p765204a27b)" d="M 378.085557 273.312 
L 379.703673 273.312 
L 379.703673 42.413538 
L 378.085557 42.413538 
z
" style="fill:#1f77b4;"/>
   </g>
   <g id="patch_196">
    <path clip-path="url(#p765204a27b)" d="M 379.703673 273.312 
L 381.321789 273.312 
L 381.321789 43.022769 
L 379.703673 43.022769 
z
" style="fill:#1f77b4;"/>
   </g>
   <g id="patch_197">
    <path clip-path="url(#p765204a27b)" d="M 381.321789 273.312 
L 382.939905 273.312 
L 382.939905 36.321231 
L 381.321789 36.321231 
z
" style="fill:#1f77b4;"/>
   </g>
   <g id="patch_198">
    <path clip-path="url(#p765204a27b)" d="M 382.939905 273.312 
L 384.558021 273.312 
L 384.558021 24.136615 
L 382.939905 24.136615 
z
" style="fill:#1f77b4;"/>
   </g>
   <g id="patch_199">
    <path clip-path="url(#p765204a27b)" d="M 384.558021 273.312 
L 386.176137 273.312 
L 386.176137 39.976615 
L 384.558021 39.976615 
z
" style="fill:#1f77b4;"/>
   </g>
   <g id="patch_200">
    <path clip-path="url(#p765204a27b)" d="M 386.176137 273.312 
L 387.794253 273.312 
L 387.794253 39.367385 
L 386.176137 39.367385 
z
" style="fill:#1f77b4;"/>
   </g>
   <g id="patch_201">
    <path clip-path="url(#p765204a27b)" d="M 387.794253 273.312 
L 389.412369 273.312 
L 389.412369 34.493538 
L 387.794253 34.493538 
z
" style="fill:#1f77b4;"/>
   </g>
   <g id="patch_202">
    <path clip-path="url(#p765204a27b)" d="M 389.412369 273.312 
L 391.030485 273.312 
L 391.030485 33.884308 
L 389.412369 33.884308 
z
" style="fill:#1f77b4;"/>
   </g>
   <g id="matplotlib.axis_1">
    <g id="xtick_1">
     <g id="line2d_1">
      <defs>
       <path d="M 0 0 
L 0 3.5 
" id="m39aa6cde16" style="stroke:#000000;stroke-width:0.8;"/>
      </defs>
      <g>
       <use style="stroke:#000000;stroke-width:0.8;" x="66.376477" xlink:href="#m39aa6cde16" y="273.312"/>
      </g>
     </g>
     <g id="text_1">
      <!-- 0.0 -->
      <g transform="translate(58.424915 287.910437)scale(0.1 -0.1)">
       <defs>
        <path d="M 2034 4250 
Q 1547 4250 1301 3770 
Q 1056 3291 1056 2328 
Q 1056 1369 1301 889 
Q 1547 409 2034 409 
Q 2525 409 2770 889 
Q 3016 1369 3016 2328 
Q 3016 3291 2770 3770 
Q 2525 4250 2034 4250 
z
M 2034 4750 
Q 2819 4750 3233 4129 
Q 3647 3509 3647 2328 
Q 3647 1150 3233 529 
Q 2819 -91 2034 -91 
Q 1250 -91 836 529 
Q 422 1150 422 2328 
Q 422 3509 836 4129 
Q 1250 4750 2034 4750 
z
" id="DejaVuSans-30" transform="scale(0.015625)"/>
        <path d="M 684 794 
L 1344 794 
L 1344 0 
L 684 0 
L 684 794 
z
" id="DejaVuSans-2e" transform="scale(0.015625)"/>
       </defs>
       <use xlink:href="#DejaVuSans-30"/>
       <use x="63.623047" xlink:href="#DejaVuSans-2e"/>
       <use x="95.410156" xlink:href="#DejaVuSans-30"/>
      </g>
     </g>
    </g>
    <g id="xtick_2">
     <g id="line2d_2">
      <g>
       <use style="stroke:#000000;stroke-width:0.8;" x="131.307386" xlink:href="#m39aa6cde16" y="273.312"/>
      </g>
     </g>
     <g id="text_2">
      <!-- 0.2 -->
      <g transform="translate(123.355824 287.910437)scale(0.1 -0.1)">
       <defs>
        <path d="M 1228 531 
L 3431 531 
L 3431 0 
L 469 0 
L 469 531 
Q 828 903 1448 1529 
Q 2069 2156 2228 2338 
Q 2531 2678 2651 2914 
Q 2772 3150 2772 3378 
Q 2772 3750 2511 3984 
Q 2250 4219 1831 4219 
Q 1534 4219 1204 4116 
Q 875 4013 500 3803 
L 500 4441 
Q 881 4594 1212 4672 
Q 1544 4750 1819 4750 
Q 2544 4750 2975 4387 
Q 3406 4025 3406 3419 
Q 3406 3131 3298 2873 
Q 3191 2616 2906 2266 
Q 2828 2175 2409 1742 
Q 1991 1309 1228 531 
z
" id="DejaVuSans-32" transform="scale(0.015625)"/>
       </defs>
       <use xlink:href="#DejaVuSans-30"/>
       <use x="63.623047" xlink:href="#DejaVuSans-2e"/>
       <use x="95.410156" xlink:href="#DejaVuSans-32"/>
      </g>
     </g>
    </g>
    <g id="xtick_3">
     <g id="line2d_3">
      <g>
       <use style="stroke:#000000;stroke-width:0.8;" x="196.238295" xlink:href="#m39aa6cde16" y="273.312"/>
      </g>
     </g>
     <g id="text_3">
      <!-- 0.4 -->
      <g transform="translate(188.286733 287.910437)scale(0.1 -0.1)">
       <defs>
        <path d="M 2419 4116 
L 825 1625 
L 2419 1625 
L 2419 4116 
z
M 2253 4666 
L 3047 4666 
L 3047 1625 
L 3713 1625 
L 3713 1100 
L 3047 1100 
L 3047 0 
L 2419 0 
L 2419 1100 
L 313 1100 
L 313 1709 
L 2253 4666 
z
" id="DejaVuSans-34" transform="scale(0.015625)"/>
       </defs>
       <use xlink:href="#DejaVuSans-30"/>
       <use x="63.623047" xlink:href="#DejaVuSans-2e"/>
       <use x="95.410156" xlink:href="#DejaVuSans-34"/>
      </g>
     </g>
    </g>
    <g id="xtick_4">
     <g id="line2d_4">
      <g>
       <use style="stroke:#000000;stroke-width:0.8;" x="261.169205" xlink:href="#m39aa6cde16" y="273.312"/>
      </g>
     </g>
     <g id="text_4">
      <!-- 0.6 -->
      <g transform="translate(253.217642 287.910437)scale(0.1 -0.1)">
       <defs>
        <path d="M 2113 2584 
Q 1688 2584 1439 2293 
Q 1191 2003 1191 1497 
Q 1191 994 1439 701 
Q 1688 409 2113 409 
Q 2538 409 2786 701 
Q 3034 994 3034 1497 
Q 3034 2003 2786 2293 
Q 2538 2584 2113 2584 
z
M 3366 4563 
L 3366 3988 
Q 3128 4100 2886 4159 
Q 2644 4219 2406 4219 
Q 1781 4219 1451 3797 
Q 1122 3375 1075 2522 
Q 1259 2794 1537 2939 
Q 1816 3084 2150 3084 
Q 2853 3084 3261 2657 
Q 3669 2231 3669 1497 
Q 3669 778 3244 343 
Q 2819 -91 2113 -91 
Q 1303 -91 875 529 
Q 447 1150 447 2328 
Q 447 3434 972 4092 
Q 1497 4750 2381 4750 
Q 2619 4750 2861 4703 
Q 3103 4656 3366 4563 
z
" id="DejaVuSans-36" transform="scale(0.015625)"/>
       </defs>
       <use xlink:href="#DejaVuSans-30"/>
       <use x="63.623047" xlink:href="#DejaVuSans-2e"/>
       <use x="95.410156" xlink:href="#DejaVuSans-36"/>
      </g>
     </g>
    </g>
    <g id="xtick_5">
     <g id="line2d_5">
      <g>
       <use style="stroke:#000000;stroke-width:0.8;" x="326.100114" xlink:href="#m39aa6cde16" y="273.312"/>
      </g>
     </g>
     <g id="text_5">
      <!-- 0.8 -->
      <g transform="translate(318.148551 287.910437)scale(0.1 -0.1)">
       <defs>
        <path d="M 2034 2216 
Q 1584 2216 1326 1975 
Q 1069 1734 1069 1313 
Q 1069 891 1326 650 
Q 1584 409 2034 409 
Q 2484 409 2743 651 
Q 3003 894 3003 1313 
Q 3003 1734 2745 1975 
Q 2488 2216 2034 2216 
z
M 1403 2484 
Q 997 2584 770 2862 
Q 544 3141 544 3541 
Q 544 4100 942 4425 
Q 1341 4750 2034 4750 
Q 2731 4750 3128 4425 
Q 3525 4100 3525 3541 
Q 3525 3141 3298 2862 
Q 3072 2584 2669 2484 
Q 3125 2378 3379 2068 
Q 3634 1759 3634 1313 
Q 3634 634 3220 271 
Q 2806 -91 2034 -91 
Q 1263 -91 848 271 
Q 434 634 434 1313 
Q 434 1759 690 2068 
Q 947 2378 1403 2484 
z
M 1172 3481 
Q 1172 3119 1398 2916 
Q 1625 2713 2034 2713 
Q 2441 2713 2670 2916 
Q 2900 3119 2900 3481 
Q 2900 3844 2670 4047 
Q 2441 4250 2034 4250 
Q 1625 4250 1398 4047 
Q 1172 3844 1172 3481 
z
" id="DejaVuSans-38" transform="scale(0.015625)"/>
       </defs>
       <use xlink:href="#DejaVuSans-30"/>
       <use x="63.623047" xlink:href="#DejaVuSans-2e"/>
       <use x="95.410156" xlink:href="#DejaVuSans-38"/>
      </g>
     </g>
    </g>
    <g id="xtick_6">
     <g id="line2d_6">
      <g>
       <use style="stroke:#000000;stroke-width:0.8;" x="391.031023" xlink:href="#m39aa6cde16" y="273.312"/>
      </g>
     </g>
     <g id="text_6">
      <!-- 1.0 -->
      <g transform="translate(383.07946 287.910437)scale(0.1 -0.1)">
       <defs>
        <path d="M 794 531 
L 1825 531 
L 1825 4091 
L 703 3866 
L 703 4441 
L 1819 4666 
L 2450 4666 
L 2450 531 
L 3481 531 
L 3481 0 
L 794 0 
L 794 531 
z
" id="DejaVuSans-31" transform="scale(0.015625)"/>
       </defs>
       <use xlink:href="#DejaVuSans-31"/>
       <use x="63.623047" xlink:href="#DejaVuSans-2e"/>
       <use x="95.410156" xlink:href="#DejaVuSans-30"/>
      </g>
     </g>
    </g>
    <g id="text_7">
     <!-- Propagation direction -->
     <g transform="translate(175.221719 301.588562)scale(0.1 -0.1)">
      <defs>
       <path d="M 1259 4147 
L 1259 2394 
L 2053 2394 
Q 2494 2394 2734 2622 
Q 2975 2850 2975 3272 
Q 2975 3691 2734 3919 
Q 2494 4147 2053 4147 
L 1259 4147 
z
M 628 4666 
L 2053 4666 
Q 2838 4666 3239 4311 
Q 3641 3956 3641 3272 
Q 3641 2581 3239 2228 
Q 2838 1875 2053 1875 
L 1259 1875 
L 1259 0 
L 628 0 
L 628 4666 
z
" id="DejaVuSans-50" transform="scale(0.015625)"/>
       <path d="M 2631 2963 
Q 2534 3019 2420 3045 
Q 2306 3072 2169 3072 
Q 1681 3072 1420 2755 
Q 1159 2438 1159 1844 
L 1159 0 
L 581 0 
L 581 3500 
L 1159 3500 
L 1159 2956 
Q 1341 3275 1631 3429 
Q 1922 3584 2338 3584 
Q 2397 3584 2469 3576 
Q 2541 3569 2628 3553 
L 2631 2963 
z
" id="DejaVuSans-72" transform="scale(0.015625)"/>
       <path d="M 1959 3097 
Q 1497 3097 1228 2736 
Q 959 2375 959 1747 
Q 959 1119 1226 758 
Q 1494 397 1959 397 
Q 2419 397 2687 759 
Q 2956 1122 2956 1747 
Q 2956 2369 2687 2733 
Q 2419 3097 1959 3097 
z
M 1959 3584 
Q 2709 3584 3137 3096 
Q 3566 2609 3566 1747 
Q 3566 888 3137 398 
Q 2709 -91 1959 -91 
Q 1206 -91 779 398 
Q 353 888 353 1747 
Q 353 2609 779 3096 
Q 1206 3584 1959 3584 
z
" id="DejaVuSans-6f" transform="scale(0.015625)"/>
       <path d="M 1159 525 
L 1159 -1331 
L 581 -1331 
L 581 3500 
L 1159 3500 
L 1159 2969 
Q 1341 3281 1617 3432 
Q 1894 3584 2278 3584 
Q 2916 3584 3314 3078 
Q 3713 2572 3713 1747 
Q 3713 922 3314 415 
Q 2916 -91 2278 -91 
Q 1894 -91 1617 61 
Q 1341 213 1159 525 
z
M 3116 1747 
Q 3116 2381 2855 2742 
Q 2594 3103 2138 3103 
Q 1681 3103 1420 2742 
Q 1159 2381 1159 1747 
Q 1159 1113 1420 752 
Q 1681 391 2138 391 
Q 2594 391 2855 752 
Q 3116 1113 3116 1747 
z
" id="DejaVuSans-70" transform="scale(0.015625)"/>
       <path d="M 2194 1759 
Q 1497 1759 1228 1600 
Q 959 1441 959 1056 
Q 959 750 1161 570 
Q 1363 391 1709 391 
Q 2188 391 2477 730 
Q 2766 1069 2766 1631 
L 2766 1759 
L 2194 1759 
z
M 3341 1997 
L 3341 0 
L 2766 0 
L 2766 531 
Q 2569 213 2275 61 
Q 1981 -91 1556 -91 
Q 1019 -91 701 211 
Q 384 513 384 1019 
Q 384 1609 779 1909 
Q 1175 2209 1959 2209 
L 2766 2209 
L 2766 2266 
Q 2766 2663 2505 2880 
Q 2244 3097 1772 3097 
Q 1472 3097 1187 3025 
Q 903 2953 641 2809 
L 641 3341 
Q 956 3463 1253 3523 
Q 1550 3584 1831 3584 
Q 2591 3584 2966 3190 
Q 3341 2797 3341 1997 
z
" id="DejaVuSans-61" transform="scale(0.015625)"/>
       <path d="M 2906 1791 
Q 2906 2416 2648 2759 
Q 2391 3103 1925 3103 
Q 1463 3103 1205 2759 
Q 947 2416 947 1791 
Q 947 1169 1205 825 
Q 1463 481 1925 481 
Q 2391 481 2648 825 
Q 2906 1169 2906 1791 
z
M 3481 434 
Q 3481 -459 3084 -895 
Q 2688 -1331 1869 -1331 
Q 1566 -1331 1297 -1286 
Q 1028 -1241 775 -1147 
L 775 -588 
Q 1028 -725 1275 -790 
Q 1522 -856 1778 -856 
Q 2344 -856 2625 -561 
Q 2906 -266 2906 331 
L 2906 616 
Q 2728 306 2450 153 
Q 2172 0 1784 0 
Q 1141 0 747 490 
Q 353 981 353 1791 
Q 353 2603 747 3093 
Q 1141 3584 1784 3584 
Q 2172 3584 2450 3431 
Q 2728 3278 2906 2969 
L 2906 3500 
L 3481 3500 
L 3481 434 
z
" id="DejaVuSans-67" transform="scale(0.015625)"/>
       <path d="M 1172 4494 
L 1172 3500 
L 2356 3500 
L 2356 3053 
L 1172 3053 
L 1172 1153 
Q 1172 725 1289 603 
Q 1406 481 1766 481 
L 2356 481 
L 2356 0 
L 1766 0 
Q 1100 0 847 248 
Q 594 497 594 1153 
L 594 3053 
L 172 3053 
L 172 3500 
L 594 3500 
L 594 4494 
L 1172 4494 
z
" id="DejaVuSans-74" transform="scale(0.015625)"/>
       <path d="M 603 3500 
L 1178 3500 
L 1178 0 
L 603 0 
L 603 3500 
z
M 603 4863 
L 1178 4863 
L 1178 4134 
L 603 4134 
L 603 4863 
z
" id="DejaVuSans-69" transform="scale(0.015625)"/>
       <path d="M 3513 2113 
L 3513 0 
L 2938 0 
L 2938 2094 
Q 2938 2591 2744 2837 
Q 2550 3084 2163 3084 
Q 1697 3084 1428 2787 
Q 1159 2491 1159 1978 
L 1159 0 
L 581 0 
L 581 3500 
L 1159 3500 
L 1159 2956 
Q 1366 3272 1645 3428 
Q 1925 3584 2291 3584 
Q 2894 3584 3203 3211 
Q 3513 2838 3513 2113 
z
" id="DejaVuSans-6e" transform="scale(0.015625)"/>
       <path id="DejaVuSans-20" transform="scale(0.015625)"/>
       <path d="M 2906 2969 
L 2906 4863 
L 3481 4863 
L 3481 0 
L 2906 0 
L 2906 525 
Q 2725 213 2448 61 
Q 2172 -91 1784 -91 
Q 1150 -91 751 415 
Q 353 922 353 1747 
Q 353 2572 751 3078 
Q 1150 3584 1784 3584 
Q 2172 3584 2448 3432 
Q 2725 3281 2906 2969 
z
M 947 1747 
Q 947 1113 1208 752 
Q 1469 391 1925 391 
Q 2381 391 2643 752 
Q 2906 1113 2906 1747 
Q 2906 2381 2643 2742 
Q 2381 3103 1925 3103 
Q 1469 3103 1208 2742 
Q 947 2381 947 1747 
z
" id="DejaVuSans-64" transform="scale(0.015625)"/>
       <path d="M 3597 1894 
L 3597 1613 
L 953 1613 
Q 991 1019 1311 708 
Q 1631 397 2203 397 
Q 2534 397 2845 478 
Q 3156 559 3463 722 
L 3463 178 
Q 3153 47 2828 -22 
Q 2503 -91 2169 -91 
Q 1331 -91 842 396 
Q 353 884 353 1716 
Q 353 2575 817 3079 
Q 1281 3584 2069 3584 
Q 2775 3584 3186 3129 
Q 3597 2675 3597 1894 
z
M 3022 2063 
Q 3016 2534 2758 2815 
Q 2500 3097 2075 3097 
Q 1594 3097 1305 2825 
Q 1016 2553 972 2059 
L 3022 2063 
z
" id="DejaVuSans-65" transform="scale(0.015625)"/>
       <path d="M 3122 3366 
L 3122 2828 
Q 2878 2963 2633 3030 
Q 2388 3097 2138 3097 
Q 1578 3097 1268 2742 
Q 959 2388 959 1747 
Q 959 1106 1268 751 
Q 1578 397 2138 397 
Q 2388 397 2633 464 
Q 2878 531 3122 666 
L 3122 134 
Q 2881 22 2623 -34 
Q 2366 -91 2075 -91 
Q 1284 -91 818 406 
Q 353 903 353 1747 
Q 353 2603 823 3093 
Q 1294 3584 2113 3584 
Q 2378 3584 2631 3529 
Q 2884 3475 3122 3366 
z
" id="DejaVuSans-63" transform="scale(0.015625)"/>
      </defs>
      <use xlink:href="#DejaVuSans-50"/>
      <use x="58.552734" xlink:href="#DejaVuSans-72"/>
      <use x="97.416016" xlink:href="#DejaVuSans-6f"/>
      <use x="158.597656" xlink:href="#DejaVuSans-70"/>
      <use x="222.074219" xlink:href="#DejaVuSans-61"/>
      <use x="283.353516" xlink:href="#DejaVuSans-67"/>
      <use x="346.830078" xlink:href="#DejaVuSans-61"/>
      <use x="408.109375" xlink:href="#DejaVuSans-74"/>
      <use x="447.318359" xlink:href="#DejaVuSans-69"/>
      <use x="475.101562" xlink:href="#DejaVuSans-6f"/>
      <use x="536.283203" xlink:href="#DejaVuSans-6e"/>
      <use x="599.662109" xlink:href="#DejaVuSans-20"/>
      <use x="631.449219" xlink:href="#DejaVuSans-64"/>
      <use x="694.925781" xlink:href="#DejaVuSans-69"/>
      <use x="722.708984" xlink:href="#DejaVuSans-72"/>
      <use x="761.572266" xlink:href="#DejaVuSans-65"/>
      <use x="823.095703" xlink:href="#DejaVuSans-63"/>
      <use x="878.076172" xlink:href="#DejaVuSans-74"/>
      <use x="917.285156" xlink:href="#DejaVuSans-69"/>
      <use x="945.068359" xlink:href="#DejaVuSans-6f"/>
      <use x="1006.25" xlink:href="#DejaVuSans-6e"/>
     </g>
    </g>
   </g>
   <g id="matplotlib.axis_2">
    <g id="ytick_1">
     <g id="line2d_7">
      <defs>
       <path d="M 0 0 
L -3.5 0 
" id="m82a52ca8bb" style="stroke:#000000;stroke-width:0.8;"/>
      </defs>
      <g>
       <use style="stroke:#000000;stroke-width:0.8;" x="50.14375" xlink:href="#m82a52ca8bb" y="273.312"/>
      </g>
     </g>
     <g id="text_8">
      <!-- 0.00 -->
      <g transform="translate(20.878125 277.111219)scale(0.1 -0.1)">
       <use xlink:href="#DejaVuSans-30"/>
       <use x="63.623047" xlink:href="#DejaVuSans-2e"/>
       <use x="95.410156" xlink:href="#DejaVuSans-30"/>
       <use x="159.033203" xlink:href="#DejaVuSans-30"/>
      </g>
     </g>
    </g>
    <g id="ytick_2">
     <g id="line2d_8">
      <g>
       <use style="stroke:#000000;stroke-width:0.8;" x="50.14375" xlink:href="#m82a52ca8bb" y="242.94723"/>
      </g>
     </g>
     <g id="text_9">
      <!-- 0.25 -->
      <g transform="translate(20.878125 246.746448)scale(0.1 -0.1)">
       <defs>
        <path d="M 691 4666 
L 3169 4666 
L 3169 4134 
L 1269 4134 
L 1269 2991 
Q 1406 3038 1543 3061 
Q 1681 3084 1819 3084 
Q 2600 3084 3056 2656 
Q 3513 2228 3513 1497 
Q 3513 744 3044 326 
Q 2575 -91 1722 -91 
Q 1428 -91 1123 -41 
Q 819 9 494 109 
L 494 744 
Q 775 591 1075 516 
Q 1375 441 1709 441 
Q 2250 441 2565 725 
Q 2881 1009 2881 1497 
Q 2881 1984 2565 2268 
Q 2250 2553 1709 2553 
Q 1456 2553 1204 2497 
Q 953 2441 691 2322 
L 691 4666 
z
" id="DejaVuSans-35" transform="scale(0.015625)"/>
       </defs>
       <use xlink:href="#DejaVuSans-30"/>
       <use x="63.623047" xlink:href="#DejaVuSans-2e"/>
       <use x="95.410156" xlink:href="#DejaVuSans-32"/>
       <use x="159.033203" xlink:href="#DejaVuSans-35"/>
      </g>
     </g>
    </g>
    <g id="ytick_3">
     <g id="line2d_9">
      <g>
       <use style="stroke:#000000;stroke-width:0.8;" x="50.14375" xlink:href="#m82a52ca8bb" y="212.582459"/>
      </g>
     </g>
     <g id="text_10">
      <!-- 0.50 -->
      <g transform="translate(20.878125 216.381678)scale(0.1 -0.1)">
       <use xlink:href="#DejaVuSans-30"/>
       <use x="63.623047" xlink:href="#DejaVuSans-2e"/>
       <use x="95.410156" xlink:href="#DejaVuSans-35"/>
       <use x="159.033203" xlink:href="#DejaVuSans-30"/>
      </g>
     </g>
    </g>
    <g id="ytick_4">
     <g id="line2d_10">
      <g>
       <use style="stroke:#000000;stroke-width:0.8;" x="50.14375" xlink:href="#m82a52ca8bb" y="182.217689"/>
      </g>
     </g>
     <g id="text_11">
      <!-- 0.75 -->
      <g transform="translate(20.878125 186.016908)scale(0.1 -0.1)">
       <defs>
        <path d="M 525 4666 
L 3525 4666 
L 3525 4397 
L 1831 0 
L 1172 0 
L 2766 4134 
L 525 4134 
L 525 4666 
z
" id="DejaVuSans-37" transform="scale(0.015625)"/>
       </defs>
       <use xlink:href="#DejaVuSans-30"/>
       <use x="63.623047" xlink:href="#DejaVuSans-2e"/>
       <use x="95.410156" xlink:href="#DejaVuSans-37"/>
       <use x="159.033203" xlink:href="#DejaVuSans-35"/>
      </g>
     </g>
    </g>
    <g id="ytick_5">
     <g id="line2d_11">
      <g>
       <use style="stroke:#000000;stroke-width:0.8;" x="50.14375" xlink:href="#m82a52ca8bb" y="151.852919"/>
      </g>
     </g>
     <g id="text_12">
      <!-- 1.00 -->
      <g transform="translate(20.878125 155.652138)scale(0.1 -0.1)">
       <use xlink:href="#DejaVuSans-31"/>
       <use x="63.623047" xlink:href="#DejaVuSans-2e"/>
       <use x="95.410156" xlink:href="#DejaVuSans-30"/>
       <use x="159.033203" xlink:href="#DejaVuSans-30"/>
      </g>
     </g>
    </g>
    <g id="ytick_6">
     <g id="line2d_12">
      <g>
       <use style="stroke:#000000;stroke-width:0.8;" x="50.14375" xlink:href="#m82a52ca8bb" y="121.488149"/>
      </g>
     </g>
     <g id="text_13">
      <!-- 1.25 -->
      <g transform="translate(20.878125 125.287367)scale(0.1 -0.1)">
       <use xlink:href="#DejaVuSans-31"/>
       <use x="63.623047" xlink:href="#DejaVuSans-2e"/>
       <use x="95.410156" xlink:href="#DejaVuSans-32"/>
       <use x="159.033203" xlink:href="#DejaVuSans-35"/>
      </g>
     </g>
    </g>
    <g id="ytick_7">
     <g id="line2d_13">
      <g>
       <use style="stroke:#000000;stroke-width:0.8;" x="50.14375" xlink:href="#m82a52ca8bb" y="91.123378"/>
      </g>
     </g>
     <g id="text_14">
      <!-- 1.50 -->
      <g transform="translate(20.878125 94.922597)scale(0.1 -0.1)">
       <use xlink:href="#DejaVuSans-31"/>
       <use x="63.623047" xlink:href="#DejaVuSans-2e"/>
       <use x="95.410156" xlink:href="#DejaVuSans-35"/>
       <use x="159.033203" xlink:href="#DejaVuSans-30"/>
      </g>
     </g>
    </g>
    <g id="ytick_8">
     <g id="line2d_14">
      <g>
       <use style="stroke:#000000;stroke-width:0.8;" x="50.14375" xlink:href="#m82a52ca8bb" y="60.758608"/>
      </g>
     </g>
     <g id="text_15">
      <!-- 1.75 -->
      <g transform="translate(20.878125 64.557827)scale(0.1 -0.1)">
       <use xlink:href="#DejaVuSans-31"/>
       <use x="63.623047" xlink:href="#DejaVuSans-2e"/>
       <use x="95.410156" xlink:href="#DejaVuSans-37"/>
       <use x="159.033203" xlink:href="#DejaVuSans-35"/>
      </g>
     </g>
    </g>
    <g id="ytick_9">
     <g id="line2d_15">
      <g>
       <use style="stroke:#000000;stroke-width:0.8;" x="50.14375" xlink:href="#m82a52ca8bb" y="30.393838"/>
      </g>
     </g>
     <g id="text_16">
      <!-- 2.00 -->
      <g transform="translate(20.878125 34.193057)scale(0.1 -0.1)">
       <use xlink:href="#DejaVuSans-32"/>
       <use x="63.623047" xlink:href="#DejaVuSans-2e"/>
       <use x="95.410156" xlink:href="#DejaVuSans-30"/>
       <use x="159.033203" xlink:href="#DejaVuSans-30"/>
      </g>
     </g>
    </g>
    <g id="text_17">
     <!-- Probability density -->
     <g transform="translate(14.798438 186.606781)rotate(-90)scale(0.1 -0.1)">
      <defs>
       <path d="M 3116 1747 
Q 3116 2381 2855 2742 
Q 2594 3103 2138 3103 
Q 1681 3103 1420 2742 
Q 1159 2381 1159 1747 
Q 1159 1113 1420 752 
Q 1681 391 2138 391 
Q 2594 391 2855 752 
Q 3116 1113 3116 1747 
z
M 1159 2969 
Q 1341 3281 1617 3432 
Q 1894 3584 2278 3584 
Q 2916 3584 3314 3078 
Q 3713 2572 3713 1747 
Q 3713 922 3314 415 
Q 2916 -91 2278 -91 
Q 1894 -91 1617 61 
Q 1341 213 1159 525 
L 1159 0 
L 581 0 
L 581 4863 
L 1159 4863 
L 1159 2969 
z
" id="DejaVuSans-62" transform="scale(0.015625)"/>
       <path d="M 603 4863 
L 1178 4863 
L 1178 0 
L 603 0 
L 603 4863 
z
" id="DejaVuSans-6c" transform="scale(0.015625)"/>
       <path d="M 2059 -325 
Q 1816 -950 1584 -1140 
Q 1353 -1331 966 -1331 
L 506 -1331 
L 506 -850 
L 844 -850 
Q 1081 -850 1212 -737 
Q 1344 -625 1503 -206 
L 1606 56 
L 191 3500 
L 800 3500 
L 1894 763 
L 2988 3500 
L 3597 3500 
L 2059 -325 
z
" id="DejaVuSans-79" transform="scale(0.015625)"/>
       <path d="M 2834 3397 
L 2834 2853 
Q 2591 2978 2328 3040 
Q 2066 3103 1784 3103 
Q 1356 3103 1142 2972 
Q 928 2841 928 2578 
Q 928 2378 1081 2264 
Q 1234 2150 1697 2047 
L 1894 2003 
Q 2506 1872 2764 1633 
Q 3022 1394 3022 966 
Q 3022 478 2636 193 
Q 2250 -91 1575 -91 
Q 1294 -91 989 -36 
Q 684 19 347 128 
L 347 722 
Q 666 556 975 473 
Q 1284 391 1588 391 
Q 1994 391 2212 530 
Q 2431 669 2431 922 
Q 2431 1156 2273 1281 
Q 2116 1406 1581 1522 
L 1381 1569 
Q 847 1681 609 1914 
Q 372 2147 372 2553 
Q 372 3047 722 3315 
Q 1072 3584 1716 3584 
Q 2034 3584 2315 3537 
Q 2597 3491 2834 3397 
z
" id="DejaVuSans-73" transform="scale(0.015625)"/>
      </defs>
      <use xlink:href="#DejaVuSans-50"/>
      <use x="58.552734" xlink:href="#DejaVuSans-72"/>
      <use x="97.416016" xlink:href="#DejaVuSans-6f"/>
      <use x="158.597656" xlink:href="#DejaVuSans-62"/>
      <use x="222.074219" xlink:href="#DejaVuSans-61"/>
      <use x="283.353516" xlink:href="#DejaVuSans-62"/>
      <use x="346.830078" xlink:href="#DejaVuSans-69"/>
      <use x="374.613281" xlink:href="#DejaVuSans-6c"/>
      <use x="402.396484" xlink:href="#DejaVuSans-69"/>
      <use x="430.179688" xlink:href="#DejaVuSans-74"/>
      <use x="469.388672" xlink:href="#DejaVuSans-79"/>
      <use x="528.568359" xlink:href="#DejaVuSans-20"/>
      <use x="560.355469" xlink:href="#DejaVuSans-64"/>
      <use x="623.832031" xlink:href="#DejaVuSans-65"/>
      <use x="685.355469" xlink:href="#DejaVuSans-6e"/>
      <use x="748.734375" xlink:href="#DejaVuSans-73"/>
      <use x="800.833984" xlink:href="#DejaVuSans-69"/>
      <use x="828.617188" xlink:href="#DejaVuSans-74"/>
      <use x="867.826172" xlink:href="#DejaVuSans-79"/>
     </g>
    </g>
   </g>
   <g id="line2d_16">
    <path clip-path="url(#p765204a27b)" d="M 66.376477 273.312 
L 391.031023 30.393838 
L 391.031023 30.393838 
" style="fill:none;stroke:#ff7f0e;stroke-linecap:square;stroke-width:1.5;"/>
   </g>
   <g id="patch_203">
    <path d="M 50.14375 273.312 
L 50.14375 7.2 
" style="fill:none;stroke:#000000;stroke-linecap:square;stroke-linejoin:miter;stroke-width:0.8;"/>
   </g>
   <g id="patch_204">
    <path d="M 407.26375 273.312 
L 407.26375 7.2 
" style="fill:none;stroke:#000000;stroke-linecap:square;stroke-linejoin:miter;stroke-width:0.8;"/>
   </g>
   <g id="patch_205">
    <path d="M 50.14375 273.312 
L 407.26375 273.312 
" style="fill:none;stroke:#000000;stroke-linecap:square;stroke-linejoin:miter;stroke-width:0.8;"/>
   </g>
   <g id="patch_206">
    <path d="M 50.14375 7.2 
L 407.26375 7.2 
" style="fill:none;stroke:#000000;stroke-linecap:square;stroke-linejoin:miter;stroke-width:0.8;"/>
   </g>
  </g>
 </g>
 <defs>
  <clipPath id="p765204a27b">
   <rect height="266.112" width="357.12" x="50.14375" y="7.2"/>
  </clipPath>
 </defs>
</svg>
