<?xml version="1.0" encoding="utf-8" standalone="no"?>
<!DOCTYPE svg PUBLIC "-//W3C//DTD SVG 1.1//EN"
  "http://www.w3.org/Graphics/SVG/1.1/DTD/svg11.dtd">
<svg height="310.86825pt" version="1.1" viewBox="0 0 408.10125 310.86825" width="408.10125pt" xmlns="http://www.w3.org/2000/svg" xmlns:xlink="http://www.w3.org/1999/xlink">
 <metadata>
  <rdf:RDF xmlns:cc="http://creativecommons.org/ns#" xmlns:dc="http://purl.org/dc/elements/1.1/" xmlns:rdf="http://www.w3.org/1999/02/22-rdf-syntax-ns#">
   <cc:Work>
    <dc:type rdf:resource="http://purl.org/dc/dcmitype/StillImage"/>
    <dc:date>2021-07-12T13:48:35.487789</dc:date>
    <dc:format>image/svg+xml</dc:format>
    <dc:creator>
     <cc:Agent>
      <dc:title>Matplotlib v3.4.2, https://matplotlib.org/</dc:title>
     </cc:Agent>
    </dc:creator>
   </cc:Work>
  </rdf:RDF>
 </metadata>
 <defs>
  <style type="text/css">*{stroke-linecap:butt;stroke-linejoin:round;}</style>
 </defs>
 <g id="figure_1">
  <g id="patch_1">
   <path d="M 0 310.86825 
L 408.10125 310.86825 
L 408.10125 0 
L 0 0 
z
" style="fill:#ffffff;"/>
  </g>
  <g id="axes_1">
   <g id="patch_2">
    <path d="M 43.78125 273.312 
L 400.90125 273.312 
L 400.90125 7.2 
L 43.78125 7.2 
z
" style="fill:#ffffff;"/>
   </g>
   <g id="patch_3">
    <path clip-path="url(#p29e04bfe21)" d="M 60.390177 273.312 
L 62.008287 273.312 
L 62.008287 271.082323 
L 60.390177 271.082323 
z
" style="fill:#1f77b4;"/>
   </g>
   <g id="patch_4">
    <path clip-path="url(#p29e04bfe21)" d="M 62.008287 273.312 
L 63.626398 273.312 
L 63.626398 268.852645 
L 62.008287 268.852645 
z
" style="fill:#1f77b4;"/>
   </g>
   <g id="patch_5">
    <path clip-path="url(#p29e04bfe21)" d="M 63.626398 273.312 
L 65.244508 273.312 
L 65.244508 263.650065 
L 63.626398 263.650065 
z
" style="fill:#1f77b4;"/>
   </g>
   <g id="patch_6">
    <path clip-path="url(#p29e04bfe21)" d="M 65.244508 273.312 
L 66.862619 273.312 
L 66.862619 264.39329 
L 65.244508 264.39329 
z
" style="fill:#1f77b4;"/>
   </g>
   <g id="patch_7">
    <path clip-path="url(#p29e04bfe21)" d="M 66.862619 273.312 
L 68.480729 273.312 
L 68.480729 254.731355 
L 66.862619 254.731355 
z
" style="fill:#1f77b4;"/>
   </g>
   <g id="patch_8">
    <path clip-path="url(#p29e04bfe21)" d="M 68.480729 273.312 
L 70.09884 273.312 
L 70.09884 254.731355 
L 68.480729 254.731355 
z
" style="fill:#1f77b4;"/>
   </g>
   <g id="patch_9">
    <path clip-path="url(#p29e04bfe21)" d="M 70.09884 273.312 
L 71.716951 273.312 
L 71.716951 254.731355 
L 70.09884 254.731355 
z
" style="fill:#1f77b4;"/>
   </g>
   <g id="patch_10">
    <path clip-path="url(#p29e04bfe21)" d="M 71.716951 273.312 
L 73.335061 273.312 
L 73.335061 247.299097 
L 71.716951 247.299097 
z
" style="fill:#1f77b4;"/>
   </g>
   <g id="patch_11">
    <path clip-path="url(#p29e04bfe21)" d="M 73.335061 273.312 
L 74.953172 273.312 
L 74.953172 236.893935 
L 73.335061 236.893935 
z
" style="fill:#1f77b4;"/>
   </g>
   <g id="patch_12">
    <path clip-path="url(#p29e04bfe21)" d="M 74.953172 273.312 
L 76.571282 273.312 
L 76.571282 242.839742 
L 74.953172 242.839742 
z
" style="fill:#1f77b4;"/>
   </g>
   <g id="patch_13">
    <path clip-path="url(#p29e04bfe21)" d="M 76.571282 273.312 
L 78.189393 273.312 
L 78.189393 227.975226 
L 76.571282 227.975226 
z
" style="fill:#1f77b4;"/>
   </g>
   <g id="patch_14">
    <path clip-path="url(#p29e04bfe21)" d="M 78.189393 273.312 
L 79.807503 273.312 
L 79.807503 223.515871 
L 78.189393 223.515871 
z
" style="fill:#1f77b4;"/>
   </g>
   <g id="patch_15">
    <path clip-path="url(#p29e04bfe21)" d="M 79.807503 273.312 
L 81.425614 273.312 
L 81.425614 230.204903 
L 79.807503 230.204903 
z
" style="fill:#1f77b4;"/>
   </g>
   <g id="patch_16">
    <path clip-path="url(#p29e04bfe21)" d="M 81.425614 273.312 
L 83.043725 273.312 
L 83.043725 205.678452 
L 81.425614 205.678452 
z
" style="fill:#1f77b4;"/>
   </g>
   <g id="patch_17">
    <path clip-path="url(#p29e04bfe21)" d="M 83.043725 273.312 
L 84.661835 273.312 
L 84.661835 228.718452 
L 83.043725 228.718452 
z
" style="fill:#1f77b4;"/>
   </g>
   <g id="patch_18">
    <path clip-path="url(#p29e04bfe21)" d="M 84.661835 273.312 
L 86.279946 273.312 
L 86.279946 227.975226 
L 84.661835 227.975226 
z
" style="fill:#1f77b4;"/>
   </g>
   <g id="patch_19">
    <path clip-path="url(#p29e04bfe21)" d="M 86.279946 273.312 
L 87.898056 273.312 
L 87.898056 216.083613 
L 86.279946 216.083613 
z
" style="fill:#1f77b4;"/>
   </g>
   <g id="patch_20">
    <path clip-path="url(#p29e04bfe21)" d="M 87.898056 273.312 
L 89.516167 273.312 
L 89.516167 207.164903 
L 87.898056 207.164903 
z
" style="fill:#1f77b4;"/>
   </g>
   <g id="patch_21">
    <path clip-path="url(#p29e04bfe21)" d="M 89.516167 273.312 
L 91.134278 273.312 
L 91.134278 210.137806 
L 89.516167 210.137806 
z
" style="fill:#1f77b4;"/>
   </g>
   <g id="patch_22">
    <path clip-path="url(#p29e04bfe21)" d="M 91.134278 273.312 
L 92.752388 273.312 
L 92.752388 202.705548 
L 91.134278 202.705548 
z
" style="fill:#1f77b4;"/>
   </g>
   <g id="patch_23">
    <path clip-path="url(#p29e04bfe21)" d="M 92.752388 273.312 
L 94.370499 273.312 
L 94.370499 197.502968 
L 92.752388 197.502968 
z
" style="fill:#1f77b4;"/>
   </g>
   <g id="patch_24">
    <path clip-path="url(#p29e04bfe21)" d="M 94.370499 273.312 
L 95.988609 273.312 
L 95.988609 195.27329 
L 94.370499 195.27329 
z
" style="fill:#1f77b4;"/>
   </g>
   <g id="patch_25">
    <path clip-path="url(#p29e04bfe21)" d="M 95.988609 273.312 
L 97.60672 273.312 
L 97.60672 188.584258 
L 95.988609 188.584258 
z
" style="fill:#1f77b4;"/>
   </g>
   <g id="patch_26">
    <path clip-path="url(#p29e04bfe21)" d="M 97.60672 273.312 
L 99.22483 273.312 
L 99.22483 177.435871 
L 97.60672 177.435871 
z
" style="fill:#1f77b4;"/>
   </g>
   <g id="patch_27">
    <path clip-path="url(#p29e04bfe21)" d="M 99.22483 273.312 
L 100.842941 273.312 
L 100.842941 208.651355 
L 99.22483 208.651355 
z
" style="fill:#1f77b4;"/>
   </g>
   <g id="patch_28">
    <path clip-path="url(#p29e04bfe21)" d="M 100.842941 273.312 
L 102.461052 273.312 
L 102.461052 174.462968 
L 100.842941 174.462968 
z
" style="fill:#1f77b4;"/>
   </g>
   <g id="patch_29">
    <path clip-path="url(#p29e04bfe21)" d="M 102.461052 273.312 
L 104.079162 273.312 
L 104.079162 170.746839 
L 102.461052 170.746839 
z
" style="fill:#1f77b4;"/>
   </g>
   <g id="patch_30">
    <path clip-path="url(#p29e04bfe21)" d="M 104.079162 273.312 
L 105.697273 273.312 
L 105.697273 174.462968 
L 104.079162 174.462968 
z
" style="fill:#1f77b4;"/>
   </g>
   <g id="patch_31">
    <path clip-path="url(#p29e04bfe21)" d="M 105.697273 273.312 
L 107.315383 273.312 
L 107.315383 179.665548 
L 105.697273 179.665548 
z
" style="fill:#1f77b4;"/>
   </g>
   <g id="patch_32">
    <path clip-path="url(#p29e04bfe21)" d="M 107.315383 273.312 
L 108.933494 273.312 
L 108.933494 158.855226 
L 107.315383 158.855226 
z
" style="fill:#1f77b4;"/>
   </g>
   <g id="patch_33">
    <path clip-path="url(#p29e04bfe21)" d="M 108.933494 273.312 
L 110.551604 273.312 
L 110.551604 165.544258 
L 108.933494 165.544258 
z
" style="fill:#1f77b4;"/>
   </g>
   <g id="patch_34">
    <path clip-path="url(#p29e04bfe21)" d="M 110.551604 273.312 
L 112.169715 273.312 
L 112.169715 171.490065 
L 110.551604 171.490065 
z
" style="fill:#1f77b4;"/>
   </g>
   <g id="patch_35">
    <path clip-path="url(#p29e04bfe21)" d="M 112.169715 273.312 
L 113.787826 273.312 
L 113.787826 165.544258 
L 112.169715 165.544258 
z
" style="fill:#1f77b4;"/>
   </g>
   <g id="patch_36">
    <path clip-path="url(#p29e04bfe21)" d="M 113.787826 273.312 
L 115.405936 273.312 
L 115.405936 143.99071 
L 113.787826 143.99071 
z
" style="fill:#1f77b4;"/>
   </g>
   <g id="patch_37">
    <path clip-path="url(#p29e04bfe21)" d="M 115.405936 273.312 
L 117.024047 273.312 
L 117.024047 149.936516 
L 115.405936 149.936516 
z
" style="fill:#1f77b4;"/>
   </g>
   <g id="patch_38">
    <path clip-path="url(#p29e04bfe21)" d="M 117.024047 273.312 
L 118.642157 273.312 
L 118.642157 161.084903 
L 117.024047 161.084903 
z
" style="fill:#1f77b4;"/>
   </g>
   <g id="patch_39">
    <path clip-path="url(#p29e04bfe21)" d="M 118.642157 273.312 
L 120.260268 273.312 
L 120.260268 155.139097 
L 118.642157 155.139097 
z
" style="fill:#1f77b4;"/>
   </g>
   <g id="patch_40">
    <path clip-path="url(#p29e04bfe21)" d="M 120.260268 273.312 
L 121.878378 273.312 
L 121.878378 144.733935 
L 120.260268 144.733935 
z
" style="fill:#1f77b4;"/>
   </g>
   <g id="patch_41">
    <path clip-path="url(#p29e04bfe21)" d="M 121.878378 273.312 
L 123.496489 273.312 
L 123.496489 152.909419 
L 121.878378 152.909419 
z
" style="fill:#1f77b4;"/>
   </g>
   <g id="patch_42">
    <path clip-path="url(#p29e04bfe21)" d="M 123.496489 273.312 
L 125.1146 273.312 
L 125.1146 120.95071 
L 123.496489 120.95071 
z
" style="fill:#1f77b4;"/>
   </g>
   <g id="patch_43">
    <path clip-path="url(#p29e04bfe21)" d="M 125.1146 273.312 
L 126.73271 273.312 
L 126.73271 129.869419 
L 125.1146 129.869419 
z
" style="fill:#1f77b4;"/>
   </g>
   <g id="patch_44">
    <path clip-path="url(#p29e04bfe21)" d="M 126.73271 273.312 
L 128.350821 273.312 
L 128.350821 131.355871 
L 126.73271 131.355871 
z
" style="fill:#1f77b4;"/>
   </g>
   <g id="patch_45">
    <path clip-path="url(#p29e04bfe21)" d="M 128.350821 273.312 
L 129.968931 273.312 
L 129.968931 118.721032 
L 128.350821 118.721032 
z
" style="fill:#1f77b4;"/>
   </g>
   <g id="patch_46">
    <path clip-path="url(#p29e04bfe21)" d="M 129.968931 273.312 
L 131.587042 273.312 
L 131.587042 119.464258 
L 129.968931 119.464258 
z
" style="fill:#1f77b4;"/>
   </g>
   <g id="patch_47">
    <path clip-path="url(#p29e04bfe21)" d="M 131.587042 273.312 
L 133.205153 273.312 
L 133.205153 114.261677 
L 131.587042 114.261677 
z
" style="fill:#1f77b4;"/>
   </g>
   <g id="patch_48">
    <path clip-path="url(#p29e04bfe21)" d="M 133.205153 273.312 
L 134.823263 273.312 
L 134.823263 115.004903 
L 133.205153 115.004903 
z
" style="fill:#1f77b4;"/>
   </g>
   <g id="patch_49">
    <path clip-path="url(#p29e04bfe21)" d="M 134.823263 273.312 
L 136.441374 273.312 
L 136.441374 139.531355 
L 134.823263 139.531355 
z
" style="fill:#1f77b4;"/>
   </g>
   <g id="patch_50">
    <path clip-path="url(#p29e04bfe21)" d="M 136.441374 273.312 
L 138.059484 273.312 
L 138.059484 106.829419 
L 136.441374 106.829419 
z
" style="fill:#1f77b4;"/>
   </g>
   <g id="patch_51">
    <path clip-path="url(#p29e04bfe21)" d="M 138.059484 273.312 
L 139.677595 273.312 
L 139.677595 94.937806 
L 138.059484 94.937806 
z
" style="fill:#1f77b4;"/>
   </g>
   <g id="patch_52">
    <path clip-path="url(#p29e04bfe21)" d="M 139.677595 273.312 
L 141.295705 273.312 
L 141.295705 102.370065 
L 139.677595 102.370065 
z
" style="fill:#1f77b4;"/>
   </g>
   <g id="patch_53">
    <path clip-path="url(#p29e04bfe21)" d="M 141.295705 273.312 
L 142.913816 273.312 
L 142.913816 95.681032 
L 141.295705 95.681032 
z
" style="fill:#1f77b4;"/>
   </g>
   <g id="patch_54">
    <path clip-path="url(#p29e04bfe21)" d="M 142.913816 273.312 
L 144.531927 273.312 
L 144.531927 114.261677 
L 142.913816 114.261677 
z
" style="fill:#1f77b4;"/>
   </g>
   <g id="patch_55">
    <path clip-path="url(#p29e04bfe21)" d="M 144.531927 273.312 
L 146.150037 273.312 
L 146.150037 110.545548 
L 144.531927 110.545548 
z
" style="fill:#1f77b4;"/>
   </g>
   <g id="patch_56">
    <path clip-path="url(#p29e04bfe21)" d="M 146.150037 273.312 
L 147.768148 273.312 
L 147.768148 106.086194 
L 146.150037 106.086194 
z
" style="fill:#1f77b4;"/>
   </g>
   <g id="patch_57">
    <path clip-path="url(#p29e04bfe21)" d="M 147.768148 273.312 
L 149.386258 273.312 
L 149.386258 99.397161 
L 147.768148 99.397161 
z
" style="fill:#1f77b4;"/>
   </g>
   <g id="patch_58">
    <path clip-path="url(#p29e04bfe21)" d="M 149.386258 273.312 
L 151.004369 273.312 
L 151.004369 99.397161 
L 149.386258 99.397161 
z
" style="fill:#1f77b4;"/>
   </g>
   <g id="patch_59">
    <path clip-path="url(#p29e04bfe21)" d="M 151.004369 273.312 
L 152.622479 273.312 
L 152.622479 104.599742 
L 151.004369 104.599742 
z
" style="fill:#1f77b4;"/>
   </g>
   <g id="patch_60">
    <path clip-path="url(#p29e04bfe21)" d="M 152.622479 273.312 
L 154.24059 273.312 
L 154.24059 88.248774 
L 152.622479 88.248774 
z
" style="fill:#1f77b4;"/>
   </g>
   <g id="patch_61">
    <path clip-path="url(#p29e04bfe21)" d="M 154.24059 273.312 
L 155.858701 273.312 
L 155.858701 71.897806 
L 154.24059 71.897806 
z
" style="fill:#1f77b4;"/>
   </g>
   <g id="patch_62">
    <path clip-path="url(#p29e04bfe21)" d="M 155.858701 273.312 
L 157.476811 273.312 
L 157.476811 73.384258 
L 155.858701 73.384258 
z
" style="fill:#1f77b4;"/>
   </g>
   <g id="patch_63">
    <path clip-path="url(#p29e04bfe21)" d="M 157.476811 273.312 
L 159.094922 273.312 
L 159.094922 91.221677 
L 157.476811 91.221677 
z
" style="fill:#1f77b4;"/>
   </g>
   <g id="patch_64">
    <path clip-path="url(#p29e04bfe21)" d="M 159.094922 273.312 
L 160.713032 273.312 
L 160.713032 86.019097 
L 159.094922 86.019097 
z
" style="fill:#1f77b4;"/>
   </g>
   <g id="patch_65">
    <path clip-path="url(#p29e04bfe21)" d="M 160.713032 273.312 
L 162.331143 273.312 
L 162.331143 79.330065 
L 160.713032 79.330065 
z
" style="fill:#1f77b4;"/>
   </g>
   <g id="patch_66">
    <path clip-path="url(#p29e04bfe21)" d="M 162.331143 273.312 
L 163.949253 273.312 
L 163.949253 71.897806 
L 162.331143 71.897806 
z
" style="fill:#1f77b4;"/>
   </g>
   <g id="patch_67">
    <path clip-path="url(#p29e04bfe21)" d="M 163.949253 273.312 
L 165.567364 273.312 
L 165.567364 90.478452 
L 163.949253 90.478452 
z
" style="fill:#1f77b4;"/>
   </g>
   <g id="patch_68">
    <path clip-path="url(#p29e04bfe21)" d="M 165.567364 273.312 
L 167.185475 273.312 
L 167.185475 84.532645 
L 165.567364 84.532645 
z
" style="fill:#1f77b4;"/>
   </g>
   <g id="patch_69">
    <path clip-path="url(#p29e04bfe21)" d="M 167.185475 273.312 
L 168.803585 273.312 
L 168.803585 68.924903 
L 167.185475 68.924903 
z
" style="fill:#1f77b4;"/>
   </g>
   <g id="patch_70">
    <path clip-path="url(#p29e04bfe21)" d="M 168.803585 273.312 
L 170.421696 273.312 
L 170.421696 78.586839 
L 168.803585 78.586839 
z
" style="fill:#1f77b4;"/>
   </g>
   <g id="patch_71">
    <path clip-path="url(#p29e04bfe21)" d="M 170.421696 273.312 
L 172.039806 273.312 
L 172.039806 57.776516 
L 170.421696 57.776516 
z
" style="fill:#1f77b4;"/>
   </g>
   <g id="patch_72">
    <path clip-path="url(#p29e04bfe21)" d="M 172.039806 273.312 
L 173.657917 273.312 
L 173.657917 60.006194 
L 172.039806 60.006194 
z
" style="fill:#1f77b4;"/>
   </g>
   <g id="patch_73">
    <path clip-path="url(#p29e04bfe21)" d="M 173.657917 273.312 
L 175.276028 273.312 
L 175.276028 57.776516 
L 173.657917 57.776516 
z
" style="fill:#1f77b4;"/>
   </g>
   <g id="patch_74">
    <path clip-path="url(#p29e04bfe21)" d="M 175.276028 273.312 
L 176.894138 273.312 
L 176.894138 67.438452 
L 175.276028 67.438452 
z
" style="fill:#1f77b4;"/>
   </g>
   <g id="patch_75">
    <path clip-path="url(#p29e04bfe21)" d="M 176.894138 273.312 
L 178.512249 273.312 
L 178.512249 43.655226 
L 176.894138 43.655226 
z
" style="fill:#1f77b4;"/>
   </g>
   <g id="patch_76">
    <path clip-path="url(#p29e04bfe21)" d="M 178.512249 273.312 
L 180.130359 273.312 
L 180.130359 56.290065 
L 178.512249 56.290065 
z
" style="fill:#1f77b4;"/>
   </g>
   <g id="patch_77">
    <path clip-path="url(#p29e04bfe21)" d="M 180.130359 273.312 
L 181.74847 273.312 
L 181.74847 83.789419 
L 180.130359 83.789419 
z
" style="fill:#1f77b4;"/>
   </g>
   <g id="patch_78">
    <path clip-path="url(#p29e04bfe21)" d="M 181.74847 273.312 
L 183.36658 273.312 
L 183.36658 38.452645 
L 181.74847 38.452645 
z
" style="fill:#1f77b4;"/>
   </g>
   <g id="patch_79">
    <path clip-path="url(#p29e04bfe21)" d="M 183.36658 273.312 
L 184.984691 273.312 
L 184.984691 47.371355 
L 183.36658 47.371355 
z
" style="fill:#1f77b4;"/>
   </g>
   <g id="patch_80">
    <path clip-path="url(#p29e04bfe21)" d="M 184.984691 273.312 
L 186.602802 273.312 
L 186.602802 55.546839 
L 184.984691 55.546839 
z
" style="fill:#1f77b4;"/>
   </g>
   <g id="patch_81">
    <path clip-path="url(#p29e04bfe21)" d="M 186.602802 273.312 
L 188.220912 273.312 
L 188.220912 68.181677 
L 186.602802 68.181677 
z
" style="fill:#1f77b4;"/>
   </g>
   <g id="patch_82">
    <path clip-path="url(#p29e04bfe21)" d="M 188.220912 273.312 
L 189.839023 273.312 
L 189.839023 51.087484 
L 188.220912 51.087484 
z
" style="fill:#1f77b4;"/>
   </g>
   <g id="patch_83">
    <path clip-path="url(#p29e04bfe21)" d="M 189.839023 273.312 
L 191.457133 273.312 
L 191.457133 33.99329 
L 189.839023 33.99329 
z
" style="fill:#1f77b4;"/>
   </g>
   <g id="patch_84">
    <path clip-path="url(#p29e04bfe21)" d="M 191.457133 273.312 
L 193.075244 273.312 
L 193.075244 46.628129 
L 191.457133 46.628129 
z
" style="fill:#1f77b4;"/>
   </g>
   <g id="patch_85">
    <path clip-path="url(#p29e04bfe21)" d="M 193.075244 273.312 
L 194.693354 273.312 
L 194.693354 44.398452 
L 193.075244 44.398452 
z
" style="fill:#1f77b4;"/>
   </g>
   <g id="patch_86">
    <path clip-path="url(#p29e04bfe21)" d="M 194.693354 273.312 
L 196.311465 273.312 
L 196.311465 64.465548 
L 194.693354 64.465548 
z
" style="fill:#1f77b4;"/>
   </g>
   <g id="patch_87">
    <path clip-path="url(#p29e04bfe21)" d="M 196.311465 273.312 
L 197.929576 273.312 
L 197.929576 53.317161 
L 196.311465 53.317161 
z
" style="fill:#1f77b4;"/>
   </g>
   <g id="patch_88">
    <path clip-path="url(#p29e04bfe21)" d="M 197.929576 273.312 
L 199.547686 273.312 
L 199.547686 53.317161 
L 197.929576 53.317161 
z
" style="fill:#1f77b4;"/>
   </g>
   <g id="patch_89">
    <path clip-path="url(#p29e04bfe21)" d="M 199.547686 273.312 
L 201.165797 273.312 
L 201.165797 56.290065 
L 199.547686 56.290065 
z
" style="fill:#1f77b4;"/>
   </g>
   <g id="patch_90">
    <path clip-path="url(#p29e04bfe21)" d="M 201.165797 273.312 
L 202.783907 273.312 
L 202.783907 65.952 
L 201.165797 65.952 
z
" style="fill:#1f77b4;"/>
   </g>
   <g id="patch_91">
    <path clip-path="url(#p29e04bfe21)" d="M 202.783907 273.312 
L 204.402018 273.312 
L 204.402018 45.884903 
L 202.783907 45.884903 
z
" style="fill:#1f77b4;"/>
   </g>
   <g id="patch_92">
    <path clip-path="url(#p29e04bfe21)" d="M 204.402018 273.312 
L 206.020128 273.312 
L 206.020128 45.884903 
L 204.402018 45.884903 
z
" style="fill:#1f77b4;"/>
   </g>
   <g id="patch_93">
    <path clip-path="url(#p29e04bfe21)" d="M 206.020128 273.312 
L 207.638239 273.312 
L 207.638239 36.222968 
L 206.020128 36.222968 
z
" style="fill:#1f77b4;"/>
   </g>
   <g id="patch_94">
    <path clip-path="url(#p29e04bfe21)" d="M 207.638239 273.312 
L 209.25635 273.312 
L 209.25635 70.411355 
L 207.638239 70.411355 
z
" style="fill:#1f77b4;"/>
   </g>
   <g id="patch_95">
    <path clip-path="url(#p29e04bfe21)" d="M 209.25635 273.312 
L 210.87446 273.312 
L 210.87446 51.087484 
L 209.25635 51.087484 
z
" style="fill:#1f77b4;"/>
   </g>
   <g id="patch_96">
    <path clip-path="url(#p29e04bfe21)" d="M 210.87446 273.312 
L 212.492571 273.312 
L 212.492571 24.331355 
L 210.87446 24.331355 
z
" style="fill:#1f77b4;"/>
   </g>
   <g id="patch_97">
    <path clip-path="url(#p29e04bfe21)" d="M 212.492571 273.312 
L 214.110681 273.312 
L 214.110681 22.844903 
L 212.492571 22.844903 
z
" style="fill:#1f77b4;"/>
   </g>
   <g id="patch_98">
    <path clip-path="url(#p29e04bfe21)" d="M 214.110681 273.312 
L 215.728792 273.312 
L 215.728792 47.371355 
L 214.110681 47.371355 
z
" style="fill:#1f77b4;"/>
   </g>
   <g id="patch_99">
    <path clip-path="url(#p29e04bfe21)" d="M 215.728792 273.312 
L 217.346903 273.312 
L 217.346903 39.939097 
L 215.728792 39.939097 
z
" style="fill:#1f77b4;"/>
   </g>
   <g id="patch_100">
    <path clip-path="url(#p29e04bfe21)" d="M 217.346903 273.312 
L 218.965013 273.312 
L 218.965013 43.655226 
L 217.346903 43.655226 
z
" style="fill:#1f77b4;"/>
   </g>
   <g id="patch_101">
    <path clip-path="url(#p29e04bfe21)" d="M 218.965013 273.312 
L 220.583124 273.312 
L 220.583124 37.709419 
L 218.965013 37.709419 
z
" style="fill:#1f77b4;"/>
   </g>
   <g id="patch_102">
    <path clip-path="url(#p29e04bfe21)" d="M 220.583124 273.312 
L 222.201234 273.312 
L 222.201234 24.331355 
L 220.583124 24.331355 
z
" style="fill:#1f77b4;"/>
   </g>
   <g id="patch_103">
    <path clip-path="url(#p29e04bfe21)" d="M 222.201234 273.312 
L 223.819345 273.312 
L 223.819345 51.83071 
L 222.201234 51.83071 
z
" style="fill:#1f77b4;"/>
   </g>
   <g id="patch_104">
    <path clip-path="url(#p29e04bfe21)" d="M 223.819345 273.312 
L 225.437455 273.312 
L 225.437455 42.168774 
L 223.819345 42.168774 
z
" style="fill:#1f77b4;"/>
   </g>
   <g id="patch_105">
    <path clip-path="url(#p29e04bfe21)" d="M 225.437455 273.312 
L 227.055566 273.312 
L 227.055566 39.195871 
L 225.437455 39.195871 
z
" style="fill:#1f77b4;"/>
   </g>
   <g id="patch_106">
    <path clip-path="url(#p29e04bfe21)" d="M 227.055566 273.312 
L 228.673677 273.312 
L 228.673677 38.452645 
L 227.055566 38.452645 
z
" style="fill:#1f77b4;"/>
   </g>
   <g id="patch_107">
    <path clip-path="url(#p29e04bfe21)" d="M 228.673677 273.312 
L 230.291787 273.312 
L 230.291787 49.601032 
L 228.673677 49.601032 
z
" style="fill:#1f77b4;"/>
   </g>
   <g id="patch_108">
    <path clip-path="url(#p29e04bfe21)" d="M 230.291787 273.312 
L 231.909898 273.312 
L 231.909898 56.290065 
L 230.291787 56.290065 
z
" style="fill:#1f77b4;"/>
   </g>
   <g id="patch_109">
    <path clip-path="url(#p29e04bfe21)" d="M 231.909898 273.312 
L 233.528008 273.312 
L 233.528008 48.857806 
L 231.909898 48.857806 
z
" style="fill:#1f77b4;"/>
   </g>
   <g id="patch_110">
    <path clip-path="url(#p29e04bfe21)" d="M 233.528008 273.312 
L 235.146119 273.312 
L 235.146119 31.763613 
L 233.528008 31.763613 
z
" style="fill:#1f77b4;"/>
   </g>
   <g id="patch_111">
    <path clip-path="url(#p29e04bfe21)" d="M 235.146119 273.312 
L 236.764229 273.312 
L 236.764229 41.425548 
L 235.146119 41.425548 
z
" style="fill:#1f77b4;"/>
   </g>
   <g id="patch_112">
    <path clip-path="url(#p29e04bfe21)" d="M 236.764229 273.312 
L 238.38234 273.312 
L 238.38234 19.872 
L 236.764229 19.872 
z
" style="fill:#1f77b4;"/>
   </g>
   <g id="patch_113">
    <path clip-path="url(#p29e04bfe21)" d="M 238.38234 273.312 
L 240.000451 273.312 
L 240.000451 48.114581 
L 238.38234 48.114581 
z
" style="fill:#1f77b4;"/>
   </g>
   <g id="patch_114">
    <path clip-path="url(#p29e04bfe21)" d="M 240.000451 273.312 
L 241.618561 273.312 
L 241.618561 46.628129 
L 240.000451 46.628129 
z
" style="fill:#1f77b4;"/>
   </g>
   <g id="patch_115">
    <path clip-path="url(#p29e04bfe21)" d="M 241.618561 273.312 
L 243.236672 273.312 
L 243.236672 69.668129 
L 241.618561 69.668129 
z
" style="fill:#1f77b4;"/>
   </g>
   <g id="patch_116">
    <path clip-path="url(#p29e04bfe21)" d="M 243.236672 273.312 
L 244.854782 273.312 
L 244.854782 34.736516 
L 243.236672 34.736516 
z
" style="fill:#1f77b4;"/>
   </g>
   <g id="patch_117">
    <path clip-path="url(#p29e04bfe21)" d="M 244.854782 273.312 
L 246.472893 273.312 
L 246.472893 28.047484 
L 244.854782 28.047484 
z
" style="fill:#1f77b4;"/>
   </g>
   <g id="patch_118">
    <path clip-path="url(#p29e04bfe21)" d="M 246.472893 273.312 
L 248.091003 273.312 
L 248.091003 27.304258 
L 246.472893 27.304258 
z
" style="fill:#1f77b4;"/>
   </g>
   <g id="patch_119">
    <path clip-path="url(#p29e04bfe21)" d="M 248.091003 273.312 
L 249.709114 273.312 
L 249.709114 34.736516 
L 248.091003 34.736516 
z
" style="fill:#1f77b4;"/>
   </g>
   <g id="patch_120">
    <path clip-path="url(#p29e04bfe21)" d="M 249.709114 273.312 
L 251.327225 273.312 
L 251.327225 41.425548 
L 249.709114 41.425548 
z
" style="fill:#1f77b4;"/>
   </g>
   <g id="patch_121">
    <path clip-path="url(#p29e04bfe21)" d="M 251.327225 273.312 
L 252.945335 273.312 
L 252.945335 48.114581 
L 251.327225 48.114581 
z
" style="fill:#1f77b4;"/>
   </g>
   <g id="patch_122">
    <path clip-path="url(#p29e04bfe21)" d="M 252.945335 273.312 
L 254.563446 273.312 
L 254.563446 61.492645 
L 252.945335 61.492645 
z
" style="fill:#1f77b4;"/>
   </g>
   <g id="patch_123">
    <path clip-path="url(#p29e04bfe21)" d="M 254.563446 273.312 
L 256.181556 273.312 
L 256.181556 85.275871 
L 254.563446 85.275871 
z
" style="fill:#1f77b4;"/>
   </g>
   <g id="patch_124">
    <path clip-path="url(#p29e04bfe21)" d="M 256.181556 273.312 
L 257.799667 273.312 
L 257.799667 33.250065 
L 256.181556 33.250065 
z
" style="fill:#1f77b4;"/>
   </g>
   <g id="patch_125">
    <path clip-path="url(#p29e04bfe21)" d="M 257.799667 273.312 
L 259.417778 273.312 
L 259.417778 43.655226 
L 257.799667 43.655226 
z
" style="fill:#1f77b4;"/>
   </g>
   <g id="patch_126">
    <path clip-path="url(#p29e04bfe21)" d="M 259.417778 273.312 
L 261.035888 273.312 
L 261.035888 71.154581 
L 259.417778 71.154581 
z
" style="fill:#1f77b4;"/>
   </g>
   <g id="patch_127">
    <path clip-path="url(#p29e04bfe21)" d="M 261.035888 273.312 
L 262.653999 273.312 
L 262.653999 48.114581 
L 261.035888 48.114581 
z
" style="fill:#1f77b4;"/>
   </g>
   <g id="patch_128">
    <path clip-path="url(#p29e04bfe21)" d="M 262.653999 273.312 
L 264.272109 273.312 
L 264.272109 50.344258 
L 262.653999 50.344258 
z
" style="fill:#1f77b4;"/>
   </g>
   <g id="patch_129">
    <path clip-path="url(#p29e04bfe21)" d="M 264.272109 273.312 
L 265.89022 273.312 
L 265.89022 56.290065 
L 264.272109 56.290065 
z
" style="fill:#1f77b4;"/>
   </g>
   <g id="patch_130">
    <path clip-path="url(#p29e04bfe21)" d="M 265.89022 273.312 
L 267.50833 273.312 
L 267.50833 57.776516 
L 265.89022 57.776516 
z
" style="fill:#1f77b4;"/>
   </g>
   <g id="patch_131">
    <path clip-path="url(#p29e04bfe21)" d="M 267.50833 273.312 
L 269.126441 273.312 
L 269.126441 58.519742 
L 267.50833 58.519742 
z
" style="fill:#1f77b4;"/>
   </g>
   <g id="patch_132">
    <path clip-path="url(#p29e04bfe21)" d="M 269.126441 273.312 
L 270.744552 273.312 
L 270.744552 69.668129 
L 269.126441 69.668129 
z
" style="fill:#1f77b4;"/>
   </g>
   <g id="patch_133">
    <path clip-path="url(#p29e04bfe21)" d="M 270.744552 273.312 
L 272.362662 273.312 
L 272.362662 77.100387 
L 270.744552 77.100387 
z
" style="fill:#1f77b4;"/>
   </g>
   <g id="patch_134">
    <path clip-path="url(#p29e04bfe21)" d="M 272.362662 273.312 
L 273.980773 273.312 
L 273.980773 63.722323 
L 272.362662 63.722323 
z
" style="fill:#1f77b4;"/>
   </g>
   <g id="patch_135">
    <path clip-path="url(#p29e04bfe21)" d="M 273.980773 273.312 
L 275.598883 273.312 
L 275.598883 43.655226 
L 273.980773 43.655226 
z
" style="fill:#1f77b4;"/>
   </g>
   <g id="patch_136">
    <path clip-path="url(#p29e04bfe21)" d="M 275.598883 273.312 
L 277.216994 273.312 
L 277.216994 83.789419 
L 275.598883 83.789419 
z
" style="fill:#1f77b4;"/>
   </g>
   <g id="patch_137">
    <path clip-path="url(#p29e04bfe21)" d="M 277.216994 273.312 
L 278.835104 273.312 
L 278.835104 71.897806 
L 277.216994 71.897806 
z
" style="fill:#1f77b4;"/>
   </g>
   <g id="patch_138">
    <path clip-path="url(#p29e04bfe21)" d="M 278.835104 273.312 
L 280.453215 273.312 
L 280.453215 101.626839 
L 278.835104 101.626839 
z
" style="fill:#1f77b4;"/>
   </g>
   <g id="patch_139">
    <path clip-path="url(#p29e04bfe21)" d="M 280.453215 273.312 
L 282.071326 273.312 
L 282.071326 46.628129 
L 280.453215 46.628129 
z
" style="fill:#1f77b4;"/>
   </g>
   <g id="patch_140">
    <path clip-path="url(#p29e04bfe21)" d="M 282.071326 273.312 
L 283.689436 273.312 
L 283.689436 87.505548 
L 282.071326 87.505548 
z
" style="fill:#1f77b4;"/>
   </g>
   <g id="patch_141">
    <path clip-path="url(#p29e04bfe21)" d="M 283.689436 273.312 
L 285.307547 273.312 
L 285.307547 78.586839 
L 283.689436 78.586839 
z
" style="fill:#1f77b4;"/>
   </g>
   <g id="patch_142">
    <path clip-path="url(#p29e04bfe21)" d="M 285.307547 273.312 
L 286.925657 273.312 
L 286.925657 81.559742 
L 285.307547 81.559742 
z
" style="fill:#1f77b4;"/>
   </g>
   <g id="patch_143">
    <path clip-path="url(#p29e04bfe21)" d="M 286.925657 273.312 
L 288.543768 273.312 
L 288.543768 85.275871 
L 286.925657 85.275871 
z
" style="fill:#1f77b4;"/>
   </g>
   <g id="patch_144">
    <path clip-path="url(#p29e04bfe21)" d="M 288.543768 273.312 
L 290.161878 273.312 
L 290.161878 83.046194 
L 288.543768 83.046194 
z
" style="fill:#1f77b4;"/>
   </g>
   <g id="patch_145">
    <path clip-path="url(#p29e04bfe21)" d="M 290.161878 273.312 
L 291.779989 273.312 
L 291.779989 74.127484 
L 290.161878 74.127484 
z
" style="fill:#1f77b4;"/>
   </g>
   <g id="patch_146">
    <path clip-path="url(#p29e04bfe21)" d="M 291.779989 273.312 
L 293.3981 273.312 
L 293.3981 117.234581 
L 291.779989 117.234581 
z
" style="fill:#1f77b4;"/>
   </g>
   <g id="patch_147">
    <path clip-path="url(#p29e04bfe21)" d="M 293.3981 273.312 
L 295.01621 273.312 
L 295.01621 91.964903 
L 293.3981 91.964903 
z
" style="fill:#1f77b4;"/>
   </g>
   <g id="patch_148">
    <path clip-path="url(#p29e04bfe21)" d="M 295.01621 273.312 
L 296.634321 273.312 
L 296.634321 90.478452 
L 295.01621 90.478452 
z
" style="fill:#1f77b4;"/>
   </g>
   <g id="patch_149">
    <path clip-path="url(#p29e04bfe21)" d="M 296.634321 273.312 
L 298.252431 273.312 
L 298.252431 102.370065 
L 296.634321 102.370065 
z
" style="fill:#1f77b4;"/>
   </g>
   <g id="patch_150">
    <path clip-path="url(#p29e04bfe21)" d="M 298.252431 273.312 
L 299.870542 273.312 
L 299.870542 104.599742 
L 298.252431 104.599742 
z
" style="fill:#1f77b4;"/>
   </g>
   <g id="patch_151">
    <path clip-path="url(#p29e04bfe21)" d="M 299.870542 273.312 
L 301.488653 273.312 
L 301.488653 77.100387 
L 299.870542 77.100387 
z
" style="fill:#1f77b4;"/>
   </g>
   <g id="patch_152">
    <path clip-path="url(#p29e04bfe21)" d="M 301.488653 273.312 
L 303.106763 273.312 
L 303.106763 91.964903 
L 301.488653 91.964903 
z
" style="fill:#1f77b4;"/>
   </g>
   <g id="patch_153">
    <path clip-path="url(#p29e04bfe21)" d="M 303.106763 273.312 
L 304.724874 273.312 
L 304.724874 119.464258 
L 303.106763 119.464258 
z
" style="fill:#1f77b4;"/>
   </g>
   <g id="patch_154">
    <path clip-path="url(#p29e04bfe21)" d="M 304.724874 273.312 
L 306.342984 273.312 
L 306.342984 121.693935 
L 304.724874 121.693935 
z
" style="fill:#1f77b4;"/>
   </g>
   <g id="patch_155">
    <path clip-path="url(#p29e04bfe21)" d="M 306.342984 273.312 
L 307.961095 273.312 
L 307.961095 120.95071 
L 306.342984 120.95071 
z
" style="fill:#1f77b4;"/>
   </g>
   <g id="patch_156">
    <path clip-path="url(#p29e04bfe21)" d="M 307.961095 273.312 
L 309.579205 273.312 
L 309.579205 138.788129 
L 307.961095 138.788129 
z
" style="fill:#1f77b4;"/>
   </g>
   <g id="patch_157">
    <path clip-path="url(#p29e04bfe21)" d="M 309.579205 273.312 
L 311.197316 273.312 
L 311.197316 117.977806 
L 309.579205 117.977806 
z
" style="fill:#1f77b4;"/>
   </g>
   <g id="patch_158">
    <path clip-path="url(#p29e04bfe21)" d="M 311.197316 273.312 
L 312.815427 273.312 
L 312.815427 120.95071 
L 311.197316 120.95071 
z
" style="fill:#1f77b4;"/>
   </g>
   <g id="patch_159">
    <path clip-path="url(#p29e04bfe21)" d="M 312.815427 273.312 
L 314.433537 273.312 
L 314.433537 133.585548 
L 312.815427 133.585548 
z
" style="fill:#1f77b4;"/>
   </g>
   <g id="patch_160">
    <path clip-path="url(#p29e04bfe21)" d="M 314.433537 273.312 
L 316.051648 273.312 
L 316.051648 126.896516 
L 314.433537 126.896516 
z
" style="fill:#1f77b4;"/>
   </g>
   <g id="patch_161">
    <path clip-path="url(#p29e04bfe21)" d="M 316.051648 273.312 
L 317.669758 273.312 
L 317.669758 164.801032 
L 316.051648 164.801032 
z
" style="fill:#1f77b4;"/>
   </g>
   <g id="patch_162">
    <path clip-path="url(#p29e04bfe21)" d="M 317.669758 273.312 
L 319.287869 273.312 
L 319.287869 146.963613 
L 317.669758 146.963613 
z
" style="fill:#1f77b4;"/>
   </g>
   <g id="patch_163">
    <path clip-path="url(#p29e04bfe21)" d="M 319.287869 273.312 
L 320.905979 273.312 
L 320.905979 148.450065 
L 319.287869 148.450065 
z
" style="fill:#1f77b4;"/>
   </g>
   <g id="patch_164">
    <path clip-path="url(#p29e04bfe21)" d="M 320.905979 273.312 
L 322.52409 273.312 
L 322.52409 154.395871 
L 320.905979 154.395871 
z
" style="fill:#1f77b4;"/>
   </g>
   <g id="patch_165">
    <path clip-path="url(#p29e04bfe21)" d="M 322.52409 273.312 
L 324.142201 273.312 
L 324.142201 139.531355 
L 322.52409 139.531355 
z
" style="fill:#1f77b4;"/>
   </g>
   <g id="patch_166">
    <path clip-path="url(#p29e04bfe21)" d="M 324.142201 273.312 
L 325.760311 273.312 
L 325.760311 141.761032 
L 324.142201 141.761032 
z
" style="fill:#1f77b4;"/>
   </g>
   <g id="patch_167">
    <path clip-path="url(#p29e04bfe21)" d="M 325.760311 273.312 
L 327.378422 273.312 
L 327.378422 161.828129 
L 325.760311 161.828129 
z
" style="fill:#1f77b4;"/>
   </g>
   <g id="patch_168">
    <path clip-path="url(#p29e04bfe21)" d="M 327.378422 273.312 
L 328.996532 273.312 
L 328.996532 159.598452 
L 327.378422 159.598452 
z
" style="fill:#1f77b4;"/>
   </g>
   <g id="patch_169">
    <path clip-path="url(#p29e04bfe21)" d="M 328.996532 273.312 
L 330.614643 273.312 
L 330.614643 164.057806 
L 328.996532 164.057806 
z
" style="fill:#1f77b4;"/>
   </g>
   <g id="patch_170">
    <path clip-path="url(#p29e04bfe21)" d="M 330.614643 273.312 
L 332.232753 273.312 
L 332.232753 155.139097 
L 330.614643 155.139097 
z
" style="fill:#1f77b4;"/>
   </g>
   <g id="patch_171">
    <path clip-path="url(#p29e04bfe21)" d="M 332.232753 273.312 
L 333.850864 273.312 
L 333.850864 170.003613 
L 332.232753 170.003613 
z
" style="fill:#1f77b4;"/>
   </g>
   <g id="patch_172">
    <path clip-path="url(#p29e04bfe21)" d="M 333.850864 273.312 
L 335.468975 273.312 
L 335.468975 172.976516 
L 333.850864 172.976516 
z
" style="fill:#1f77b4;"/>
   </g>
   <g id="patch_173">
    <path clip-path="url(#p29e04bfe21)" d="M 335.468975 273.312 
L 337.087085 273.312 
L 337.087085 177.435871 
L 335.468975 177.435871 
z
" style="fill:#1f77b4;"/>
   </g>
   <g id="patch_174">
    <path clip-path="url(#p29e04bfe21)" d="M 337.087085 273.312 
L 338.705196 273.312 
L 338.705196 171.490065 
L 337.087085 171.490065 
z
" style="fill:#1f77b4;"/>
   </g>
   <g id="patch_175">
    <path clip-path="url(#p29e04bfe21)" d="M 338.705196 273.312 
L 340.323306 273.312 
L 340.323306 178.179097 
L 338.705196 178.179097 
z
" style="fill:#1f77b4;"/>
   </g>
   <g id="patch_176">
    <path clip-path="url(#p29e04bfe21)" d="M 340.323306 273.312 
L 341.941417 273.312 
L 341.941417 167.03071 
L 340.323306 167.03071 
z
" style="fill:#1f77b4;"/>
   </g>
   <g id="patch_177">
    <path clip-path="url(#p29e04bfe21)" d="M 341.941417 273.312 
L 343.559528 273.312 
L 343.559528 185.611355 
L 341.941417 185.611355 
z
" style="fill:#1f77b4;"/>
   </g>
   <g id="patch_178">
    <path clip-path="url(#p29e04bfe21)" d="M 343.559528 273.312 
L 345.177638 273.312 
L 345.177638 181.152 
L 343.559528 181.152 
z
" style="fill:#1f77b4;"/>
   </g>
   <g id="patch_179">
    <path clip-path="url(#p29e04bfe21)" d="M 345.177638 273.312 
L 346.795749 273.312 
L 346.795749 181.895226 
L 345.177638 181.895226 
z
" style="fill:#1f77b4;"/>
   </g>
   <g id="patch_180">
    <path clip-path="url(#p29e04bfe21)" d="M 346.795749 273.312 
L 348.413859 273.312 
L 348.413859 183.381677 
L 346.795749 183.381677 
z
" style="fill:#1f77b4;"/>
   </g>
   <g id="patch_181">
    <path clip-path="url(#p29e04bfe21)" d="M 348.413859 273.312 
L 350.03197 273.312 
L 350.03197 204.192 
L 348.413859 204.192 
z
" style="fill:#1f77b4;"/>
   </g>
   <g id="patch_182">
    <path clip-path="url(#p29e04bfe21)" d="M 350.03197 273.312 
L 351.65008 273.312 
L 351.65008 184.124903 
L 350.03197 184.124903 
z
" style="fill:#1f77b4;"/>
   </g>
   <g id="patch_183">
    <path clip-path="url(#p29e04bfe21)" d="M 351.65008 273.312 
L 353.268191 273.312 
L 353.268191 201.962323 
L 351.65008 201.962323 
z
" style="fill:#1f77b4;"/>
   </g>
   <g id="patch_184">
    <path clip-path="url(#p29e04bfe21)" d="M 353.268191 273.312 
L 354.886302 273.312 
L 354.886302 196.016516 
L 353.268191 196.016516 
z
" style="fill:#1f77b4;"/>
   </g>
   <g id="patch_185">
    <path clip-path="url(#p29e04bfe21)" d="M 354.886302 273.312 
L 356.504412 273.312 
L 356.504412 207.164903 
L 354.886302 207.164903 
z
" style="fill:#1f77b4;"/>
   </g>
   <g id="patch_186">
    <path clip-path="url(#p29e04bfe21)" d="M 356.504412 273.312 
L 358.122523 273.312 
L 358.122523 210.881032 
L 356.504412 210.881032 
z
" style="fill:#1f77b4;"/>
   </g>
   <g id="patch_187">
    <path clip-path="url(#p29e04bfe21)" d="M 358.122523 273.312 
L 359.740633 273.312 
L 359.740633 213.853935 
L 358.122523 213.853935 
z
" style="fill:#1f77b4;"/>
   </g>
   <g id="patch_188">
    <path clip-path="url(#p29e04bfe21)" d="M 359.740633 273.312 
L 361.358744 273.312 
L 361.358744 230.948129 
L 359.740633 230.948129 
z
" style="fill:#1f77b4;"/>
   </g>
   <g id="patch_189">
    <path clip-path="url(#p29e04bfe21)" d="M 361.358744 273.312 
L 362.976854 273.312 
L 362.976854 220.542968 
L 361.358744 220.542968 
z
" style="fill:#1f77b4;"/>
   </g>
   <g id="patch_190">
    <path clip-path="url(#p29e04bfe21)" d="M 362.976854 273.312 
L 364.594965 273.312 
L 364.594965 213.11071 
L 362.976854 213.11071 
z
" style="fill:#1f77b4;"/>
   </g>
   <g id="patch_191">
    <path clip-path="url(#p29e04bfe21)" d="M 364.594965 273.312 
L 366.213076 273.312 
L 366.213076 233.177806 
L 364.594965 233.177806 
z
" style="fill:#1f77b4;"/>
   </g>
   <g id="patch_192">
    <path clip-path="url(#p29e04bfe21)" d="M 366.213076 273.312 
L 367.831186 273.312 
L 367.831186 223.515871 
L 366.213076 223.515871 
z
" style="fill:#1f77b4;"/>
   </g>
   <g id="patch_193">
    <path clip-path="url(#p29e04bfe21)" d="M 367.831186 273.312 
L 369.449297 273.312 
L 369.449297 239.866839 
L 367.831186 239.866839 
z
" style="fill:#1f77b4;"/>
   </g>
   <g id="patch_194">
    <path clip-path="url(#p29e04bfe21)" d="M 369.449297 273.312 
L 371.067407 273.312 
L 371.067407 227.232 
L 369.449297 227.232 
z
" style="fill:#1f77b4;"/>
   </g>
   <g id="patch_195">
    <path clip-path="url(#p29e04bfe21)" d="M 371.067407 273.312 
L 372.685518 273.312 
L 372.685518 241.35329 
L 371.067407 241.35329 
z
" style="fill:#1f77b4;"/>
   </g>
   <g id="patch_196">
    <path clip-path="url(#p29e04bfe21)" d="M 372.685518 273.312 
L 374.303629 273.312 
L 374.303629 248.042323 
L 372.685518 248.042323 
z
" style="fill:#1f77b4;"/>
   </g>
   <g id="patch_197">
    <path clip-path="url(#p29e04bfe21)" d="M 374.303629 273.312 
L 375.921739 273.312 
L 375.921739 248.785548 
L 374.303629 248.785548 
z
" style="fill:#1f77b4;"/>
   </g>
   <g id="patch_198">
    <path clip-path="url(#p29e04bfe21)" d="M 375.921739 273.312 
L 377.53985 273.312 
L 377.53985 256.217806 
L 375.921739 256.217806 
z
" style="fill:#1f77b4;"/>
   </g>
   <g id="patch_199">
    <path clip-path="url(#p29e04bfe21)" d="M 377.53985 273.312 
L 379.15796 273.312 
L 379.15796 259.19071 
L 377.53985 259.19071 
z
" style="fill:#1f77b4;"/>
   </g>
   <g id="patch_200">
    <path clip-path="url(#p29e04bfe21)" d="M 379.15796 273.312 
L 380.776071 273.312 
L 380.776071 263.650065 
L 379.15796 263.650065 
z
" style="fill:#1f77b4;"/>
   </g>
   <g id="patch_201">
    <path clip-path="url(#p29e04bfe21)" d="M 380.776071 273.312 
L 382.394181 273.312 
L 382.394181 268.109419 
L 380.776071 268.109419 
z
" style="fill:#1f77b4;"/>
   </g>
   <g id="patch_202">
    <path clip-path="url(#p29e04bfe21)" d="M 382.394181 273.312 
L 384.012292 273.312 
L 384.012292 268.852645 
L 382.394181 268.852645 
z
" style="fill:#1f77b4;"/>
   </g>
   <g id="matplotlib.axis_1">
    <g id="xtick_1">
     <g id="line2d_1">
      <defs>
       <path d="M 0 0 
L 0 3.5 
" id="m0850a5bb7e" style="stroke:#000000;stroke-width:0.8;"/>
      </defs>
      <g>
       <use style="stroke:#000000;stroke-width:0.8;" x="60.013977" xlink:href="#m0850a5bb7e" y="273.312"/>
      </g>
     </g>
     <g id="text_1">
      <!-- 0.0 -->
      <g transform="translate(52.062415 287.910437)scale(0.1 -0.1)">
       <defs>
        <path d="M 2034 4250 
Q 1547 4250 1301 3770 
Q 1056 3291 1056 2328 
Q 1056 1369 1301 889 
Q 1547 409 2034 409 
Q 2525 409 2770 889 
Q 3016 1369 3016 2328 
Q 3016 3291 2770 3770 
Q 2525 4250 2034 4250 
z
M 2034 4750 
Q 2819 4750 3233 4129 
Q 3647 3509 3647 2328 
Q 3647 1150 3233 529 
Q 2819 -91 2034 -91 
Q 1250 -91 836 529 
Q 422 1150 422 2328 
Q 422 3509 836 4129 
Q 1250 4750 2034 4750 
z
" id="DejaVuSans-30" transform="scale(0.015625)"/>
        <path d="M 684 794 
L 1344 794 
L 1344 0 
L 684 0 
L 684 794 
z
" id="DejaVuSans-2e" transform="scale(0.015625)"/>
       </defs>
       <use xlink:href="#DejaVuSans-30"/>
       <use x="63.623047" xlink:href="#DejaVuSans-2e"/>
       <use x="95.410156" xlink:href="#DejaVuSans-30"/>
      </g>
     </g>
    </g>
    <g id="xtick_2">
     <g id="line2d_2">
      <g>
       <use style="stroke:#000000;stroke-width:0.8;" x="101.350278" xlink:href="#m0850a5bb7e" y="273.312"/>
      </g>
     </g>
     <g id="text_2">
      <!-- 0.2 -->
      <g transform="translate(93.398715 287.910437)scale(0.1 -0.1)">
       <defs>
        <path d="M 1228 531 
L 3431 531 
L 3431 0 
L 469 0 
L 469 531 
Q 828 903 1448 1529 
Q 2069 2156 2228 2338 
Q 2531 2678 2651 2914 
Q 2772 3150 2772 3378 
Q 2772 3750 2511 3984 
Q 2250 4219 1831 4219 
Q 1534 4219 1204 4116 
Q 875 4013 500 3803 
L 500 4441 
Q 881 4594 1212 4672 
Q 1544 4750 1819 4750 
Q 2544 4750 2975 4387 
Q 3406 4025 3406 3419 
Q 3406 3131 3298 2873 
Q 3191 2616 2906 2266 
Q 2828 2175 2409 1742 
Q 1991 1309 1228 531 
z
" id="DejaVuSans-32" transform="scale(0.015625)"/>
       </defs>
       <use xlink:href="#DejaVuSans-30"/>
       <use x="63.623047" xlink:href="#DejaVuSans-2e"/>
       <use x="95.410156" xlink:href="#DejaVuSans-32"/>
      </g>
     </g>
    </g>
    <g id="xtick_3">
     <g id="line2d_3">
      <g>
       <use style="stroke:#000000;stroke-width:0.8;" x="142.686578" xlink:href="#m0850a5bb7e" y="273.312"/>
      </g>
     </g>
     <g id="text_3">
      <!-- 0.4 -->
      <g transform="translate(134.735016 287.910437)scale(0.1 -0.1)">
       <defs>
        <path d="M 2419 4116 
L 825 1625 
L 2419 1625 
L 2419 4116 
z
M 2253 4666 
L 3047 4666 
L 3047 1625 
L 3713 1625 
L 3713 1100 
L 3047 1100 
L 3047 0 
L 2419 0 
L 2419 1100 
L 313 1100 
L 313 1709 
L 2253 4666 
z
" id="DejaVuSans-34" transform="scale(0.015625)"/>
       </defs>
       <use xlink:href="#DejaVuSans-30"/>
       <use x="63.623047" xlink:href="#DejaVuSans-2e"/>
       <use x="95.410156" xlink:href="#DejaVuSans-34"/>
      </g>
     </g>
    </g>
    <g id="xtick_4">
     <g id="line2d_4">
      <g>
       <use style="stroke:#000000;stroke-width:0.8;" x="184.022879" xlink:href="#m0850a5bb7e" y="273.312"/>
      </g>
     </g>
     <g id="text_4">
      <!-- 0.6 -->
      <g transform="translate(176.071316 287.910437)scale(0.1 -0.1)">
       <defs>
        <path d="M 2113 2584 
Q 1688 2584 1439 2293 
Q 1191 2003 1191 1497 
Q 1191 994 1439 701 
Q 1688 409 2113 409 
Q 2538 409 2786 701 
Q 3034 994 3034 1497 
Q 3034 2003 2786 2293 
Q 2538 2584 2113 2584 
z
M 3366 4563 
L 3366 3988 
Q 3128 4100 2886 4159 
Q 2644 4219 2406 4219 
Q 1781 4219 1451 3797 
Q 1122 3375 1075 2522 
Q 1259 2794 1537 2939 
Q 1816 3084 2150 3084 
Q 2853 3084 3261 2657 
Q 3669 2231 3669 1497 
Q 3669 778 3244 343 
Q 2819 -91 2113 -91 
Q 1303 -91 875 529 
Q 447 1150 447 2328 
Q 447 3434 972 4092 
Q 1497 4750 2381 4750 
Q 2619 4750 2861 4703 
Q 3103 4656 3366 4563 
z
" id="DejaVuSans-36" transform="scale(0.015625)"/>
       </defs>
       <use xlink:href="#DejaVuSans-30"/>
       <use x="63.623047" xlink:href="#DejaVuSans-2e"/>
       <use x="95.410156" xlink:href="#DejaVuSans-36"/>
      </g>
     </g>
    </g>
    <g id="xtick_5">
     <g id="line2d_5">
      <g>
       <use style="stroke:#000000;stroke-width:0.8;" x="225.35918" xlink:href="#m0850a5bb7e" y="273.312"/>
      </g>
     </g>
     <g id="text_5">
      <!-- 0.8 -->
      <g transform="translate(217.407617 287.910437)scale(0.1 -0.1)">
       <defs>
        <path d="M 2034 2216 
Q 1584 2216 1326 1975 
Q 1069 1734 1069 1313 
Q 1069 891 1326 650 
Q 1584 409 2034 409 
Q 2484 409 2743 651 
Q 3003 894 3003 1313 
Q 3003 1734 2745 1975 
Q 2488 2216 2034 2216 
z
M 1403 2484 
Q 997 2584 770 2862 
Q 544 3141 544 3541 
Q 544 4100 942 4425 
Q 1341 4750 2034 4750 
Q 2731 4750 3128 4425 
Q 3525 4100 3525 3541 
Q 3525 3141 3298 2862 
Q 3072 2584 2669 2484 
Q 3125 2378 3379 2068 
Q 3634 1759 3634 1313 
Q 3634 634 3220 271 
Q 2806 -91 2034 -91 
Q 1263 -91 848 271 
Q 434 634 434 1313 
Q 434 1759 690 2068 
Q 947 2378 1403 2484 
z
M 1172 3481 
Q 1172 3119 1398 2916 
Q 1625 2713 2034 2713 
Q 2441 2713 2670 2916 
Q 2900 3119 2900 3481 
Q 2900 3844 2670 4047 
Q 2441 4250 2034 4250 
Q 1625 4250 1398 4047 
Q 1172 3844 1172 3481 
z
" id="DejaVuSans-38" transform="scale(0.015625)"/>
       </defs>
       <use xlink:href="#DejaVuSans-30"/>
       <use x="63.623047" xlink:href="#DejaVuSans-2e"/>
       <use x="95.410156" xlink:href="#DejaVuSans-38"/>
      </g>
     </g>
    </g>
    <g id="xtick_6">
     <g id="line2d_6">
      <g>
       <use style="stroke:#000000;stroke-width:0.8;" x="266.69548" xlink:href="#m0850a5bb7e" y="273.312"/>
      </g>
     </g>
     <g id="text_6">
      <!-- 1.0 -->
      <g transform="translate(258.743918 287.910437)scale(0.1 -0.1)">
       <defs>
        <path d="M 794 531 
L 1825 531 
L 1825 4091 
L 703 3866 
L 703 4441 
L 1819 4666 
L 2450 4666 
L 2450 531 
L 3481 531 
L 3481 0 
L 794 0 
L 794 531 
z
" id="DejaVuSans-31" transform="scale(0.015625)"/>
       </defs>
       <use xlink:href="#DejaVuSans-31"/>
       <use x="63.623047" xlink:href="#DejaVuSans-2e"/>
       <use x="95.410156" xlink:href="#DejaVuSans-30"/>
      </g>
     </g>
    </g>
    <g id="xtick_7">
     <g id="line2d_7">
      <g>
       <use style="stroke:#000000;stroke-width:0.8;" x="308.031781" xlink:href="#m0850a5bb7e" y="273.312"/>
      </g>
     </g>
     <g id="text_7">
      <!-- 1.2 -->
      <g transform="translate(300.080218 287.910437)scale(0.1 -0.1)">
       <use xlink:href="#DejaVuSans-31"/>
       <use x="63.623047" xlink:href="#DejaVuSans-2e"/>
       <use x="95.410156" xlink:href="#DejaVuSans-32"/>
      </g>
     </g>
    </g>
    <g id="xtick_8">
     <g id="line2d_8">
      <g>
       <use style="stroke:#000000;stroke-width:0.8;" x="349.368081" xlink:href="#m0850a5bb7e" y="273.312"/>
      </g>
     </g>
     <g id="text_8">
      <!-- 1.4 -->
      <g transform="translate(341.416519 287.910437)scale(0.1 -0.1)">
       <use xlink:href="#DejaVuSans-31"/>
       <use x="63.623047" xlink:href="#DejaVuSans-2e"/>
       <use x="95.410156" xlink:href="#DejaVuSans-34"/>
      </g>
     </g>
    </g>
    <g id="xtick_9">
     <g id="line2d_9">
      <g>
       <use style="stroke:#000000;stroke-width:0.8;" x="390.704382" xlink:href="#m0850a5bb7e" y="273.312"/>
      </g>
     </g>
     <g id="text_9">
      <!-- 1.6 -->
      <g transform="translate(382.752819 287.910437)scale(0.1 -0.1)">
       <use xlink:href="#DejaVuSans-31"/>
       <use x="63.623047" xlink:href="#DejaVuSans-2e"/>
       <use x="95.410156" xlink:href="#DejaVuSans-36"/>
      </g>
     </g>
    </g>
    <g id="text_10">
     <!-- Angle with normal (rad) -->
     <g transform="translate(163.023281 301.588562)scale(0.1 -0.1)">
      <defs>
       <path d="M 2188 4044 
L 1331 1722 
L 3047 1722 
L 2188 4044 
z
M 1831 4666 
L 2547 4666 
L 4325 0 
L 3669 0 
L 3244 1197 
L 1141 1197 
L 716 0 
L 50 0 
L 1831 4666 
z
" id="DejaVuSans-41" transform="scale(0.015625)"/>
       <path d="M 3513 2113 
L 3513 0 
L 2938 0 
L 2938 2094 
Q 2938 2591 2744 2837 
Q 2550 3084 2163 3084 
Q 1697 3084 1428 2787 
Q 1159 2491 1159 1978 
L 1159 0 
L 581 0 
L 581 3500 
L 1159 3500 
L 1159 2956 
Q 1366 3272 1645 3428 
Q 1925 3584 2291 3584 
Q 2894 3584 3203 3211 
Q 3513 2838 3513 2113 
z
" id="DejaVuSans-6e" transform="scale(0.015625)"/>
       <path d="M 2906 1791 
Q 2906 2416 2648 2759 
Q 2391 3103 1925 3103 
Q 1463 3103 1205 2759 
Q 947 2416 947 1791 
Q 947 1169 1205 825 
Q 1463 481 1925 481 
Q 2391 481 2648 825 
Q 2906 1169 2906 1791 
z
M 3481 434 
Q 3481 -459 3084 -895 
Q 2688 -1331 1869 -1331 
Q 1566 -1331 1297 -1286 
Q 1028 -1241 775 -1147 
L 775 -588 
Q 1028 -725 1275 -790 
Q 1522 -856 1778 -856 
Q 2344 -856 2625 -561 
Q 2906 -266 2906 331 
L 2906 616 
Q 2728 306 2450 153 
Q 2172 0 1784 0 
Q 1141 0 747 490 
Q 353 981 353 1791 
Q 353 2603 747 3093 
Q 1141 3584 1784 3584 
Q 2172 3584 2450 3431 
Q 2728 3278 2906 2969 
L 2906 3500 
L 3481 3500 
L 3481 434 
z
" id="DejaVuSans-67" transform="scale(0.015625)"/>
       <path d="M 603 4863 
L 1178 4863 
L 1178 0 
L 603 0 
L 603 4863 
z
" id="DejaVuSans-6c" transform="scale(0.015625)"/>
       <path d="M 3597 1894 
L 3597 1613 
L 953 1613 
Q 991 1019 1311 708 
Q 1631 397 2203 397 
Q 2534 397 2845 478 
Q 3156 559 3463 722 
L 3463 178 
Q 3153 47 2828 -22 
Q 2503 -91 2169 -91 
Q 1331 -91 842 396 
Q 353 884 353 1716 
Q 353 2575 817 3079 
Q 1281 3584 2069 3584 
Q 2775 3584 3186 3129 
Q 3597 2675 3597 1894 
z
M 3022 2063 
Q 3016 2534 2758 2815 
Q 2500 3097 2075 3097 
Q 1594 3097 1305 2825 
Q 1016 2553 972 2059 
L 3022 2063 
z
" id="DejaVuSans-65" transform="scale(0.015625)"/>
       <path id="DejaVuSans-20" transform="scale(0.015625)"/>
       <path d="M 269 3500 
L 844 3500 
L 1563 769 
L 2278 3500 
L 2956 3500 
L 3675 769 
L 4391 3500 
L 4966 3500 
L 4050 0 
L 3372 0 
L 2619 2869 
L 1863 0 
L 1184 0 
L 269 3500 
z
" id="DejaVuSans-77" transform="scale(0.015625)"/>
       <path d="M 603 3500 
L 1178 3500 
L 1178 0 
L 603 0 
L 603 3500 
z
M 603 4863 
L 1178 4863 
L 1178 4134 
L 603 4134 
L 603 4863 
z
" id="DejaVuSans-69" transform="scale(0.015625)"/>
       <path d="M 1172 4494 
L 1172 3500 
L 2356 3500 
L 2356 3053 
L 1172 3053 
L 1172 1153 
Q 1172 725 1289 603 
Q 1406 481 1766 481 
L 2356 481 
L 2356 0 
L 1766 0 
Q 1100 0 847 248 
Q 594 497 594 1153 
L 594 3053 
L 172 3053 
L 172 3500 
L 594 3500 
L 594 4494 
L 1172 4494 
z
" id="DejaVuSans-74" transform="scale(0.015625)"/>
       <path d="M 3513 2113 
L 3513 0 
L 2938 0 
L 2938 2094 
Q 2938 2591 2744 2837 
Q 2550 3084 2163 3084 
Q 1697 3084 1428 2787 
Q 1159 2491 1159 1978 
L 1159 0 
L 581 0 
L 581 4863 
L 1159 4863 
L 1159 2956 
Q 1366 3272 1645 3428 
Q 1925 3584 2291 3584 
Q 2894 3584 3203 3211 
Q 3513 2838 3513 2113 
z
" id="DejaVuSans-68" transform="scale(0.015625)"/>
       <path d="M 1959 3097 
Q 1497 3097 1228 2736 
Q 959 2375 959 1747 
Q 959 1119 1226 758 
Q 1494 397 1959 397 
Q 2419 397 2687 759 
Q 2956 1122 2956 1747 
Q 2956 2369 2687 2733 
Q 2419 3097 1959 3097 
z
M 1959 3584 
Q 2709 3584 3137 3096 
Q 3566 2609 3566 1747 
Q 3566 888 3137 398 
Q 2709 -91 1959 -91 
Q 1206 -91 779 398 
Q 353 888 353 1747 
Q 353 2609 779 3096 
Q 1206 3584 1959 3584 
z
" id="DejaVuSans-6f" transform="scale(0.015625)"/>
       <path d="M 2631 2963 
Q 2534 3019 2420 3045 
Q 2306 3072 2169 3072 
Q 1681 3072 1420 2755 
Q 1159 2438 1159 1844 
L 1159 0 
L 581 0 
L 581 3500 
L 1159 3500 
L 1159 2956 
Q 1341 3275 1631 3429 
Q 1922 3584 2338 3584 
Q 2397 3584 2469 3576 
Q 2541 3569 2628 3553 
L 2631 2963 
z
" id="DejaVuSans-72" transform="scale(0.015625)"/>
       <path d="M 3328 2828 
Q 3544 3216 3844 3400 
Q 4144 3584 4550 3584 
Q 5097 3584 5394 3201 
Q 5691 2819 5691 2113 
L 5691 0 
L 5113 0 
L 5113 2094 
Q 5113 2597 4934 2840 
Q 4756 3084 4391 3084 
Q 3944 3084 3684 2787 
Q 3425 2491 3425 1978 
L 3425 0 
L 2847 0 
L 2847 2094 
Q 2847 2600 2669 2842 
Q 2491 3084 2119 3084 
Q 1678 3084 1418 2786 
Q 1159 2488 1159 1978 
L 1159 0 
L 581 0 
L 581 3500 
L 1159 3500 
L 1159 2956 
Q 1356 3278 1631 3431 
Q 1906 3584 2284 3584 
Q 2666 3584 2933 3390 
Q 3200 3197 3328 2828 
z
" id="DejaVuSans-6d" transform="scale(0.015625)"/>
       <path d="M 2194 1759 
Q 1497 1759 1228 1600 
Q 959 1441 959 1056 
Q 959 750 1161 570 
Q 1363 391 1709 391 
Q 2188 391 2477 730 
Q 2766 1069 2766 1631 
L 2766 1759 
L 2194 1759 
z
M 3341 1997 
L 3341 0 
L 2766 0 
L 2766 531 
Q 2569 213 2275 61 
Q 1981 -91 1556 -91 
Q 1019 -91 701 211 
Q 384 513 384 1019 
Q 384 1609 779 1909 
Q 1175 2209 1959 2209 
L 2766 2209 
L 2766 2266 
Q 2766 2663 2505 2880 
Q 2244 3097 1772 3097 
Q 1472 3097 1187 3025 
Q 903 2953 641 2809 
L 641 3341 
Q 956 3463 1253 3523 
Q 1550 3584 1831 3584 
Q 2591 3584 2966 3190 
Q 3341 2797 3341 1997 
z
" id="DejaVuSans-61" transform="scale(0.015625)"/>
       <path d="M 1984 4856 
Q 1566 4138 1362 3434 
Q 1159 2731 1159 2009 
Q 1159 1288 1364 580 
Q 1569 -128 1984 -844 
L 1484 -844 
Q 1016 -109 783 600 
Q 550 1309 550 2009 
Q 550 2706 781 3412 
Q 1013 4119 1484 4856 
L 1984 4856 
z
" id="DejaVuSans-28" transform="scale(0.015625)"/>
       <path d="M 2906 2969 
L 2906 4863 
L 3481 4863 
L 3481 0 
L 2906 0 
L 2906 525 
Q 2725 213 2448 61 
Q 2172 -91 1784 -91 
Q 1150 -91 751 415 
Q 353 922 353 1747 
Q 353 2572 751 3078 
Q 1150 3584 1784 3584 
Q 2172 3584 2448 3432 
Q 2725 3281 2906 2969 
z
M 947 1747 
Q 947 1113 1208 752 
Q 1469 391 1925 391 
Q 2381 391 2643 752 
Q 2906 1113 2906 1747 
Q 2906 2381 2643 2742 
Q 2381 3103 1925 3103 
Q 1469 3103 1208 2742 
Q 947 2381 947 1747 
z
" id="DejaVuSans-64" transform="scale(0.015625)"/>
       <path d="M 513 4856 
L 1013 4856 
Q 1481 4119 1714 3412 
Q 1947 2706 1947 2009 
Q 1947 1309 1714 600 
Q 1481 -109 1013 -844 
L 513 -844 
Q 928 -128 1133 580 
Q 1338 1288 1338 2009 
Q 1338 2731 1133 3434 
Q 928 4138 513 4856 
z
" id="DejaVuSans-29" transform="scale(0.015625)"/>
      </defs>
      <use xlink:href="#DejaVuSans-41"/>
      <use x="68.408203" xlink:href="#DejaVuSans-6e"/>
      <use x="131.787109" xlink:href="#DejaVuSans-67"/>
      <use x="195.263672" xlink:href="#DejaVuSans-6c"/>
      <use x="223.046875" xlink:href="#DejaVuSans-65"/>
      <use x="284.570312" xlink:href="#DejaVuSans-20"/>
      <use x="316.357422" xlink:href="#DejaVuSans-77"/>
      <use x="398.144531" xlink:href="#DejaVuSans-69"/>
      <use x="425.927734" xlink:href="#DejaVuSans-74"/>
      <use x="465.136719" xlink:href="#DejaVuSans-68"/>
      <use x="528.515625" xlink:href="#DejaVuSans-20"/>
      <use x="560.302734" xlink:href="#DejaVuSans-6e"/>
      <use x="623.681641" xlink:href="#DejaVuSans-6f"/>
      <use x="684.863281" xlink:href="#DejaVuSans-72"/>
      <use x="724.226562" xlink:href="#DejaVuSans-6d"/>
      <use x="821.638672" xlink:href="#DejaVuSans-61"/>
      <use x="882.917969" xlink:href="#DejaVuSans-6c"/>
      <use x="910.701172" xlink:href="#DejaVuSans-20"/>
      <use x="942.488281" xlink:href="#DejaVuSans-28"/>
      <use x="981.501953" xlink:href="#DejaVuSans-72"/>
      <use x="1022.615234" xlink:href="#DejaVuSans-61"/>
      <use x="1083.894531" xlink:href="#DejaVuSans-64"/>
      <use x="1147.371094" xlink:href="#DejaVuSans-29"/>
     </g>
    </g>
   </g>
   <g id="matplotlib.axis_2">
    <g id="ytick_1">
     <g id="line2d_10">
      <defs>
       <path d="M 0 0 
L -3.5 0 
" id="me5556dff60" style="stroke:#000000;stroke-width:0.8;"/>
      </defs>
      <g>
       <use style="stroke:#000000;stroke-width:0.8;" x="43.78125" xlink:href="#me5556dff60" y="273.312"/>
      </g>
     </g>
     <g id="text_11">
      <!-- 0.0 -->
      <g transform="translate(20.878125 277.111219)scale(0.1 -0.1)">
       <use xlink:href="#DejaVuSans-30"/>
       <use x="63.623047" xlink:href="#DejaVuSans-2e"/>
       <use x="95.410156" xlink:href="#DejaVuSans-30"/>
      </g>
     </g>
    </g>
    <g id="ytick_2">
     <g id="line2d_11">
      <g>
       <use style="stroke:#000000;stroke-width:0.8;" x="43.78125" xlink:href="#me5556dff60" y="226.76225"/>
      </g>
     </g>
     <g id="text_12">
      <!-- 0.2 -->
      <g transform="translate(20.878125 230.561469)scale(0.1 -0.1)">
       <use xlink:href="#DejaVuSans-30"/>
       <use x="63.623047" xlink:href="#DejaVuSans-2e"/>
       <use x="95.410156" xlink:href="#DejaVuSans-32"/>
      </g>
     </g>
    </g>
    <g id="ytick_3">
     <g id="line2d_12">
      <g>
       <use style="stroke:#000000;stroke-width:0.8;" x="43.78125" xlink:href="#me5556dff60" y="180.2125"/>
      </g>
     </g>
     <g id="text_13">
      <!-- 0.4 -->
      <g transform="translate(20.878125 184.011719)scale(0.1 -0.1)">
       <use xlink:href="#DejaVuSans-30"/>
       <use x="63.623047" xlink:href="#DejaVuSans-2e"/>
       <use x="95.410156" xlink:href="#DejaVuSans-34"/>
      </g>
     </g>
    </g>
    <g id="ytick_4">
     <g id="line2d_13">
      <g>
       <use style="stroke:#000000;stroke-width:0.8;" x="43.78125" xlink:href="#me5556dff60" y="133.66275"/>
      </g>
     </g>
     <g id="text_14">
      <!-- 0.6 -->
      <g transform="translate(20.878125 137.461968)scale(0.1 -0.1)">
       <use xlink:href="#DejaVuSans-30"/>
       <use x="63.623047" xlink:href="#DejaVuSans-2e"/>
       <use x="95.410156" xlink:href="#DejaVuSans-36"/>
      </g>
     </g>
    </g>
    <g id="ytick_5">
     <g id="line2d_14">
      <g>
       <use style="stroke:#000000;stroke-width:0.8;" x="43.78125" xlink:href="#me5556dff60" y="87.113"/>
      </g>
     </g>
     <g id="text_15">
      <!-- 0.8 -->
      <g transform="translate(20.878125 90.912218)scale(0.1 -0.1)">
       <use xlink:href="#DejaVuSans-30"/>
       <use x="63.623047" xlink:href="#DejaVuSans-2e"/>
       <use x="95.410156" xlink:href="#DejaVuSans-38"/>
      </g>
     </g>
    </g>
    <g id="ytick_6">
     <g id="line2d_15">
      <g>
       <use style="stroke:#000000;stroke-width:0.8;" x="43.78125" xlink:href="#me5556dff60" y="40.563249"/>
      </g>
     </g>
     <g id="text_16">
      <!-- 1.0 -->
      <g transform="translate(20.878125 44.362468)scale(0.1 -0.1)">
       <use xlink:href="#DejaVuSans-31"/>
       <use x="63.623047" xlink:href="#DejaVuSans-2e"/>
       <use x="95.410156" xlink:href="#DejaVuSans-30"/>
      </g>
     </g>
    </g>
    <g id="text_17">
     <!-- Probability density -->
     <g transform="translate(14.798438 186.606781)rotate(-90)scale(0.1 -0.1)">
      <defs>
       <path d="M 1259 4147 
L 1259 2394 
L 2053 2394 
Q 2494 2394 2734 2622 
Q 2975 2850 2975 3272 
Q 2975 3691 2734 3919 
Q 2494 4147 2053 4147 
L 1259 4147 
z
M 628 4666 
L 2053 4666 
Q 2838 4666 3239 4311 
Q 3641 3956 3641 3272 
Q 3641 2581 3239 2228 
Q 2838 1875 2053 1875 
L 1259 1875 
L 1259 0 
L 628 0 
L 628 4666 
z
" id="DejaVuSans-50" transform="scale(0.015625)"/>
       <path d="M 3116 1747 
Q 3116 2381 2855 2742 
Q 2594 3103 2138 3103 
Q 1681 3103 1420 2742 
Q 1159 2381 1159 1747 
Q 1159 1113 1420 752 
Q 1681 391 2138 391 
Q 2594 391 2855 752 
Q 3116 1113 3116 1747 
z
M 1159 2969 
Q 1341 3281 1617 3432 
Q 1894 3584 2278 3584 
Q 2916 3584 3314 3078 
Q 3713 2572 3713 1747 
Q 3713 922 3314 415 
Q 2916 -91 2278 -91 
Q 1894 -91 1617 61 
Q 1341 213 1159 525 
L 1159 0 
L 581 0 
L 581 4863 
L 1159 4863 
L 1159 2969 
z
" id="DejaVuSans-62" transform="scale(0.015625)"/>
       <path d="M 2059 -325 
Q 1816 -950 1584 -1140 
Q 1353 -1331 966 -1331 
L 506 -1331 
L 506 -850 
L 844 -850 
Q 1081 -850 1212 -737 
Q 1344 -625 1503 -206 
L 1606 56 
L 191 3500 
L 800 3500 
L 1894 763 
L 2988 3500 
L 3597 3500 
L 2059 -325 
z
" id="DejaVuSans-79" transform="scale(0.015625)"/>
       <path d="M 2834 3397 
L 2834 2853 
Q 2591 2978 2328 3040 
Q 2066 3103 1784 3103 
Q 1356 3103 1142 2972 
Q 928 2841 928 2578 
Q 928 2378 1081 2264 
Q 1234 2150 1697 2047 
L 1894 2003 
Q 2506 1872 2764 1633 
Q 3022 1394 3022 966 
Q 3022 478 2636 193 
Q 2250 -91 1575 -91 
Q 1294 -91 989 -36 
Q 684 19 347 128 
L 347 722 
Q 666 556 975 473 
Q 1284 391 1588 391 
Q 1994 391 2212 530 
Q 2431 669 2431 922 
Q 2431 1156 2273 1281 
Q 2116 1406 1581 1522 
L 1381 1569 
Q 847 1681 609 1914 
Q 372 2147 372 2553 
Q 372 3047 722 3315 
Q 1072 3584 1716 3584 
Q 2034 3584 2315 3537 
Q 2597 3491 2834 3397 
z
" id="DejaVuSans-73" transform="scale(0.015625)"/>
      </defs>
      <use xlink:href="#DejaVuSans-50"/>
      <use x="58.552734" xlink:href="#DejaVuSans-72"/>
      <use x="97.416016" xlink:href="#DejaVuSans-6f"/>
      <use x="158.597656" xlink:href="#DejaVuSans-62"/>
      <use x="222.074219" xlink:href="#DejaVuSans-61"/>
      <use x="283.353516" xlink:href="#DejaVuSans-62"/>
      <use x="346.830078" xlink:href="#DejaVuSans-69"/>
      <use x="374.613281" xlink:href="#DejaVuSans-6c"/>
      <use x="402.396484" xlink:href="#DejaVuSans-69"/>
      <use x="430.179688" xlink:href="#DejaVuSans-74"/>
      <use x="469.388672" xlink:href="#DejaVuSans-79"/>
      <use x="528.568359" xlink:href="#DejaVuSans-20"/>
      <use x="560.355469" xlink:href="#DejaVuSans-64"/>
      <use x="623.832031" xlink:href="#DejaVuSans-65"/>
      <use x="685.355469" xlink:href="#DejaVuSans-6e"/>
      <use x="748.734375" xlink:href="#DejaVuSans-73"/>
      <use x="800.833984" xlink:href="#DejaVuSans-69"/>
      <use x="828.617188" xlink:href="#DejaVuSans-74"/>
      <use x="867.826172" xlink:href="#DejaVuSans-79"/>
     </g>
    </g>
   </g>
   <g id="line2d_16">
    <path clip-path="url(#p29e04bfe21)" d="M 60.013977 273.312 
L 79.837728 228.93737 
L 90.237073 206.208396 
L 99.01152 187.549812 
L 106.811029 171.479066 
L 113.960578 157.254705 
L 120.460169 144.803584 
L 126.63478 133.444982 
L 132.484411 123.144034 
L 138.009063 113.856508 
L 143.208736 105.531055 
L 148.408408 97.630281 
L 153.283101 90.626798 
L 157.832814 84.456595 
L 162.382528 78.652394 
L 166.607261 73.600345 
L 170.831995 68.882028 
L 175.056729 64.505328 
L 178.956483 60.774842 
L 182.856238 57.346988 
L 186.755992 54.226647 
L 190.330767 51.640279 
L 193.905542 49.319139 
L 197.480316 47.266006 
L 201.055091 45.483335 
L 204.304886 44.099226 
L 207.554682 42.941775 
L 210.804477 42.012127 
L 214.054272 41.311202 
L 217.304067 40.839691 
L 220.553863 40.598062 
L 223.803658 40.586554 
L 227.053453 40.805178 
L 230.303248 41.253717 
L 233.553044 41.931729 
L 236.802839 42.838542 
L 240.052634 43.973261 
L 243.302429 45.334762 
L 246.552225 46.9217 
L 250.126999 48.925831 
L 253.701774 51.19844 
L 257.276549 53.736806 
L 260.851324 56.537893 
L 264.751078 59.889309 
L 268.650832 63.544618 
L 272.550587 67.498615 
L 276.77532 72.112632 
L 281.000054 77.062868 
L 285.224788 82.341051 
L 289.774501 88.381875 
L 294.324215 94.781095 
L 299.198908 102.021007 
L 304.39858 110.163194 
L 309.598252 118.718334 
L 315.122904 128.236406 
L 320.972536 138.765589 
L 327.147147 150.346602 
L 333.646737 163.010453 
L 340.796287 177.442499 
L 348.595795 193.707239 
L 357.370243 212.542113 
L 367.769587 235.42085 
L 382.393666 268.188878 
L 384.668523 273.312 
L 384.668523 273.312 
" style="fill:none;stroke:#ff7f0e;stroke-linecap:square;stroke-width:1.5;"/>
   </g>
   <g id="patch_203">
    <path d="M 43.78125 273.312 
L 43.78125 7.2 
" style="fill:none;stroke:#000000;stroke-linecap:square;stroke-linejoin:miter;stroke-width:0.8;"/>
   </g>
   <g id="patch_204">
    <path d="M 400.90125 273.312 
L 400.90125 7.2 
" style="fill:none;stroke:#000000;stroke-linecap:square;stroke-linejoin:miter;stroke-width:0.8;"/>
   </g>
   <g id="patch_205">
    <path d="M 43.78125 273.312 
L 400.90125 273.312 
" style="fill:none;stroke:#000000;stroke-linecap:square;stroke-linejoin:miter;stroke-width:0.8;"/>
   </g>
   <g id="patch_206">
    <path d="M 43.78125 7.2 
L 400.90125 7.2 
" style="fill:none;stroke:#000000;stroke-linecap:square;stroke-linejoin:miter;stroke-width:0.8;"/>
   </g>
  </g>
 </g>
 <defs>
  <clipPath id="p29e04bfe21">
   <rect height="266.112" width="357.12" x="43.78125" y="7.2"/>
  </clipPath>
 </defs>
</svg>
